<svg xmlns="http://www.w3.org/2000/svg" viewBox="0 0 326.12 178.63"><defs><style>.cls-1{fill:#fff;}.cls-2{fill:#2d9313;}.cls-3{fill:#fe0000;}</style></defs><title>My Lennon buddy-pro</title><g id="Layer_2" data-name="Layer 2"><path d="M152,90.11a1.5,1.5,0,0,1-1.49-1.38l-.28-3.43-8.35.67h-.13a1.49,1.49,0,0,1-1.49-1.38L140,81.16l-3.44.27h-.12A1.5,1.5,0,0,1,135,80.06l-1.18-14.78a1.44,1.44,0,0,1,.35-1.09,1.49,1.49,0,0,1,1-.53l3.43-.27L137.53,50.1a1.54,1.54,0,0,1,.35-1.09,1.52,1.52,0,0,1,1-.52l3.43-.28-.67-8.35A1.49,1.49,0,0,1,143,38.24l3.44-.28-.28-3.43a1.5,1.5,0,0,1,1.38-1.61l14.78-1.18h.12a1.51,1.51,0,0,1,1,.36,1.49,1.49,0,0,1,.52,1l.28,3.43,1.93-.15L165.91,33a1.49,1.49,0,0,1,1.37-1.62l14.78-1.18h.12a1.54,1.54,0,0,1,1,.36,1.51,1.51,0,0,1,.52,1L184,35l3.43-.28h.12a1.48,1.48,0,0,1,1.5,1.38l.27,3.43,3.44-.28h.12a1.46,1.46,0,0,1,1,.36,1.47,1.47,0,0,1,.52,1L195,49l3.43-.28h.12a1.44,1.44,0,0,1,1,.36,1.48,1.48,0,0,1,.53,1l.66,8.36,3.44-.28h.12a1.48,1.48,0,0,1,1.49,1.38l.79,9.85A1.49,1.49,0,0,1,205.16,71l-3.43.28.28,3.43a1.51,1.51,0,0,1-1.38,1.62l-3.43.27.28,3.43a1.53,1.53,0,0,1-.36,1.1,1.49,1.49,0,0,1-1,.52l-3.43.27.27,3.43a1.48,1.48,0,0,1-.35,1.1,1.51,1.51,0,0,1-1,.52L152.15,90.1Z"/><path class="cls-1" d="M182.18,31.65l.4,4.93,4.92-.39.4,4.92,4.93-.39.39,4.93.39,4.92,4.93-.39.4,4.92.39,4.93,4.93-.39.39,4.92.4,4.93-4.93.39h0l-3.29.27-1.64.13-.34,0,5.27-.43h0l.2,2.52.19,2.41-4.92.4.39,4.92-4.93.4-5.81.46h0l.91-.07,3.69-.29,1.23-.1.4,4.92-4.93.4-3.28.26-1.65.13-4.92.4-4.93.39-4.93.39-1.23.1-3.69.3-4.93.39-4.93.4h0l-.39-4.93-4.93.4-4.92.39,0-.37-.37-4.56-4.92.4-.4-4.93-.39-4.93-.2-2.46-.2-2.46,4.93-.4-.4-4.92-.39-4.93L139,50l4.92-.39-.39-4.93-.26-3.28-.14-1.64.37,0,4.56-.37-.39-4.93,4.92-.39,4.93-.39,2.46-.2,2.47-.2h0l.19,2.46.2,2.47,4.93-.4-.27-3.28-.13-1.64,4.93-.4,4.93-.39,4.92-.4m-26.8,36.86h0m26.81-39.86h-.25l-4.92.4-4.93.39-4.93.4a3,3,0,0,0-2,1,2.83,2.83,0,0,0-.32.45,2.79,2.79,0,0,0-.38-.39,3,3,0,0,0-1.94-.72h-.24l-2.47.2-2.46.19-4.93.4-4.92.39a3,3,0,0,0-2.05,1,3,3,0,0,0-.7,2.18l.15,1.94-1.57.13-.37,0A3,3,0,0,0,140.17,40l.14,1.65.26,3.28.15,1.94-1.93.15a3,3,0,0,0-2,1,3,3,0,0,0-.7,2.18l.39,4.93.39,4.93L137,62l-1.94.16a3,3,0,0,0-2.75,3.23l.2,2.46.2,2.46.39,4.93.39,4.93a3,3,0,0,0,1.05,2,3,3,0,0,0,1.94.72h.24l1.94-.16.13,1.57,0,.37a3,3,0,0,0,3,2.76H142l4.92-.39,1.94-.16.15,1.94a3,3,0,0,0,3,2.76h.24l4.93-.4,4.93-.39,3.69-.3,1.23-.09L172,90l4.93-.39,4.92-.4,1.65-.13,3.28-.26,4.93-.4a3,3,0,0,0,2.75-3.23l-.16-1.93,1.94-.16A3,3,0,0,0,199,79.89L198.82,78l1.93-.16a3,3,0,0,0,2.75-3.23l-.15-1.93,1.93-.16a3,3,0,0,0,2.05-1,3.07,3.07,0,0,0,.71-2.19l-.4-4.93-.39-4.92a3,3,0,0,0-3-2.76H204l-1.94.15-.15-1.94-.4-4.92a3,3,0,0,0-3-2.76h-.24l-1.93.15-.16-1.93-.39-4.93a3,3,0,0,0-1-2,3,3,0,0,0-1.94-.71h-.24l-1.94.15L190.49,36a3,3,0,0,0-1-2.05,3,3,0,0,0-1.95-.71h-.23l-1.94.15-.16-1.94a3,3,0,0,0-3-2.76Z"/><path d="M3,112a1.5,1.5,0,0,1-.62-2.87c17.1-7.72,31.76-18.83,44.84-34-1.75-5.39-3.4-10.74-5.14-16.4l-1.74-5.66a24.16,24.16,0,0,0-1.69,3c-1.1,2.2-2.22,4.45-4.72,5.89a1.56,1.56,0,0,1-.75.2,1.49,1.49,0,0,1-1.09-.47c-1.87-2-3.8-3.91-6.11-6.21a1.5,1.5,0,0,1,.4-2.41c.72-.35,1.41-.73,2.13-1.12s1.73-1,2.66-1.39c5.5-2.68,8.27-5.75,9.21-10.25a1.55,1.55,0,0,1,.08-.36,2.69,2.69,0,0,1,.73-1l.26-.26a1.5,1.5,0,0,1,1.08-.46,1.54,1.54,0,0,1,.88.29c1.27.92,2.48,1.85,3.76,2.84l.34.26c.87.67,1.76,1.36,2.7,2a1.51,1.51,0,0,1,.4,2l-2.76,4.73c.15,4,2.23,7.15,4.64,10.84.61.92,1.22,1.86,1.81,2.82,5.63-7.92,8.15-16.92,10.81-26.45.33-1.17.66-2.36,1-3.54-2.8-.14-5.42-.21-8-.21-1.22,0-2.43,0-3.63.05-16,.4-29.75,3.64-42,9.91a1.48,1.48,0,0,1-.68.16,1.52,1.52,0,0,1-1.24-.66L3.38,32.81a1.49,1.49,0,0,1,1.13-2.33l41.62-3.25L45.76,12.3l-4.19-2.12a1.51,1.51,0,0,1-.14-2.58l8.71-5.85A1.56,1.56,0,0,1,51,1.5a1.44,1.44,0,0,1,.6.13l14,6.13A1.5,1.5,0,0,1,66.25,10l-3.93,5.77.26,10,17.22-.43,4.83-5.52a1.54,1.54,0,0,1,1.1-.51h0a1.51,1.51,0,0,1,1.08.46L98.69,32.08a1.5,1.5,0,0,1-.07,2.15l-.83.75c-1,.93-2,1.81-2.49,2.32a1.46,1.46,0,0,1-1.07.46,1.07,1.07,0,0,1-.25,0L73.49,34.26,83,43a1.51,1.51,0,0,1-.47,2.51c-4.56,1.75-6.33,5.38-8.2,9.22-.39.79-.76,1.54-1.15,2.28-1.77,3.25-3.73,6.38-5.63,9.41-1.07,1.7-2.14,3.4-3.18,5.13a20.17,20.17,0,0,1-1.14,1.82l1.2,1a26.29,26.29,0,0,0,3.36,2.5,104.62,104.62,0,0,0,20.84,9l17.64,4.7a1.49,1.49,0,0,1,1.11,1.34,1.52,1.52,0,0,1-.92,1.49l-2.42,1-4.55,1.78c-2.84,1.09-5.51,2.13-8.13,3.31a6.59,6.59,0,0,0-1.92,1.82c-.29.36-.58.71-.88,1a1.51,1.51,0,0,1-1.1.48,1.48,1.48,0,0,1-.46-.08A98.85,98.85,0,0,1,53.71,84.65c-2.44,1.53-4.88,3.09-7.25,4.61C40.57,93,34.56,96.88,28.39,100.2l-3.45,1.92c-6.79,3.81-13.81,7.74-21.55,9.82A1.32,1.32,0,0,1,3,112ZM53.66,84.62,73.2,34.21"/><path class="cls-1" d="M51,3,65,9.13l-3.93,5.78a1.36,1.36,0,0,0-.25.83l.26,10.16a1.41,1.41,0,0,0,1.41,1.38h0l17.31-.44a1.41,1.41,0,0,0,1-.48l4.89-5.55L97.61,33.12l-.83.76c-1.08,1-2,1.83-2.55,2.38L73.45,32.73l-.24,0h0a1.42,1.42,0,0,0-1.24.79,1.44,1.44,0,0,0,.32,1.67L82,44.1c-5.11,2-7.09,6-9,10-.38.78-.74,1.52-1.13,2.24-1.73,3.19-3.68,6.3-5.57,9.31-1.08,1.71-2.15,3.42-3.2,5.15A17.57,17.57,0,0,1,62,72.59a1.41,1.41,0,0,0,.29,1.9l1.23,1a26.76,26.76,0,0,0,3.57,2.65,106.35,106.35,0,0,0,21.16,9.17L105.91,92l-2.43,1c-1.5.61-3,1.19-4.5,1.77-2.87,1.11-5.56,2.14-8.21,3.34a7.64,7.64,0,0,0-2.46,2.24c-.27.33-.54.66-.82,1a98,98,0,0,1-32.88-17.9,1.34,1.34,0,0,0-.89-.32h0a1.33,1.33,0,0,0-.71.21c-2.48,1.55-5,3.13-7.36,4.67-5.81,3.72-11.8,7.56-17.93,10.86l-3.48,1.94c-6.71,3.76-13.63,7.63-21.2,9.68,17.29-7.81,32.14-19.07,45.35-34.36a1.42,1.42,0,0,0,.28-1.35C46.9,69.32,45.25,64,43.51,58.3l-1.78-5.77a1.4,1.4,0,0,0-1.1-1l-.25,0h0a1.39,1.39,0,0,0-1.09.56,20.47,20.47,0,0,0-2,3.38c-1,2.06-2,4-4.12,5.23-1.87-2-3.76-3.87-6.14-6.24.76-.37,1.49-.77,2.25-1.19s1.65-.9,2.52-1.31c5.91-2.88,9-6.36,10-11.3a.77.77,0,0,0,0-.15,2.59,2.59,0,0,1,.38-.42l.28-.28c1.25.92,2.46,1.84,3.73,2.82l.12.09c.94.73,1.91,1.47,2.93,2.23l-2.76,4.73a1.47,1.47,0,0,0-.19.77c.16,4.43,2.45,7.94,4.88,11.65.62.94,1.25,1.9,1.84,2.89a1.44,1.44,0,0,0,1.16.68h.09a1.41,1.41,0,0,0,1.11-.59c5.84-8.16,8.4-17.32,11.12-27,.33-1.2.67-2.42,1-3.64a1.41,1.41,0,0,0-1.29-1.8c-2.84-.14-5.55-.21-8.19-.21-1.23,0-2.45,0-3.67.05-16.22.41-30.18,3.7-42.67,10.07L4.62,32l41.71-3.25a1.41,1.41,0,0,0,1.3-1.44l-.37-15a1.44,1.44,0,0,0-.76-1.22L42.27,8.84,51,3m0-3A3,3,0,0,0,49.3.51L40.59,6.35a3,3,0,0,0,.29,5.16l3.4,1.77.32,12.57L4.39,29a3,3,0,0,0-2.25,4.67L9.28,44.2a3,3,0,0,0,2.48,1.32,3.07,3.07,0,0,0,1.37-.33C25.2,39,38.74,35.84,54.51,35.45c1.18,0,2.39-.05,3.59-.05,2,0,4,0,6.05.12l-.48,1.73C61.25,45.89,59,54.1,54.34,61.35l-.59-.89c-2.19-3.35-4.1-6.27-4.36-9.68l2.51-4.31a3,3,0,0,0-.8-3.92l-2.83-2.16-.06,0-.12-.1c-1.3-1-2.51-1.93-3.8-2.86a3,3,0,0,0-1.76-.58,3,3,0,0,0-2.14.9l-.24.23a4.11,4.11,0,0,0-1.09,1.54,2.65,2.65,0,0,0-.16.63c-.86,4-3.38,6.7-8.41,9.15-.92.43-1.88,1-2.64,1.38s-1.44.78-2.12,1.11A3,3,0,0,0,24.08,54a3,3,0,0,0,.84,2.62c2.37,2.36,4.22,4.22,6.08,6.18a3,3,0,0,0,2.18.94,3,3,0,0,0,1.49-.4c2.86-1.64,4.15-4.17,5.27-6.41l.71,2.3c1.65,5.37,3.21,10.45,4.85,15.65C32.72,89.48,18.4,100.25,1.77,107.76a3,3,0,0,0,2,5.63c7.93-2.14,15-6.11,21.89-10l3.46-1.94c6.19-3.32,12.23-7.19,18.07-10.93l0,0c2.07-1.32,4.21-2.69,6.35-4a100.41,100.41,0,0,0,33,17.72,3,3,0,0,0,.92.15,3,3,0,0,0,2.2-1c.33-.36.63-.72.92-1.07A7.32,7.32,0,0,1,92,100.9c2.59-1.17,5.24-2.19,8.06-3.28,1.61-.62,3.06-1.18,4.56-1.79l2.47-1a3,3,0,0,0-.4-5.66l-17.63-4.7a102.63,102.63,0,0,1-20.52-8.91,23.48,23.48,0,0,1-3.1-2.32l-.18-.15a8.32,8.32,0,0,0,.47-.8c1-1.69,2.09-3.39,3.12-5,1.92-3,3.9-6.2,5.68-9.47.42-.81.79-1.56,1.18-2.36,1.82-3.73,3.39-6.94,7.39-8.48a3,3,0,0,0,1-5l-5.78-5.3,15.47,2.62a2.83,2.83,0,0,0,.5,0,3,3,0,0,0,2.15-.91c.47-.48,1.42-1.34,2.42-2.25l.83-.76a3,3,0,0,0,1-2.12A3,3,0,0,0,99.77,31L87.92,18.73a3,3,0,0,0-2.16-.92h-.07a3,3,0,0,0-2.18,1l-4.44,5-15,.38-.21-8.06,3.65-5.36a3,3,0,0,0-1.28-4.43L52.18.25A3,3,0,0,0,51,0Z"/><path d="M127.62,103.67a1.49,1.49,0,0,1-1.34-.82c-.37-.75-.69-1.5-1-2.24-.82-2-1.58-3.84-3.31-5.08a1.5,1.5,0,0,1,.88-2.72h0c6,.21,12.16.31,18.73.31,15.19,0,30.32-.56,43.12-1.11a1.4,1.4,0,0,1,.93-.35,1.5,1.5,0,0,1,.85.27l7.31-.32c2.84-2.18,5.12-3.85,7.34-5.39a1.46,1.46,0,0,1,.86-.27,1.31,1.31,0,0,1,.44.07c4.74,1.47,10.82,7.35,10.91,11.86a1.58,1.58,0,0,1-.31.94c-.49.65-1.1,1.3-1.68,1.93-.25.27-.51.54-.76.83a1.51,1.51,0,0,1-1.12.49,1.37,1.37,0,0,1-.34,0c-1.23-.29-2.53-.62-3.83-.94l-.09,0c-2.89-.73-5.86-1.48-8.79-1.92a114.31,114.31,0,0,0-14.95-1.4c-1.52-.06-3.1-.09-4.85-.09-2.54,0-5.15.06-7.67.12l-.15-1.49,0,1.5-3.19.07-9.65.43c-.66,0-1.33,0-2,.06H154a35,35,0,0,0-5.92.45l-.11,0L139,99.89l-10.89,3.7A1.34,1.34,0,0,1,127.62,103.67Z"/><path class="cls-1" d="M202.05,87.45c4.16,1.29,9.78,6.66,9.85,10.46-.45.58-1,1.19-1.59,1.82l-.78.84c-1.22-.29-2.51-.61-3.8-.94l-.1,0c-2.92-.74-5.94-1.5-8.92-2a115.67,115.67,0,0,0-15.15-1.42c-1.49-.06-3.09-.09-4.88-.09-2.59,0-5.24.06-7.8.13l-3.2.07-9.69.43c-.68,0-1.37,0-2.06.06a35.67,35.67,0,0,0-6.18.48l-8.94,1.08a1.28,1.28,0,0,0-.28.07l-10.91,3.7c-.35-.7-.66-1.44-1-2.15-.86-2.08-1.74-4.22-3.81-5.71,6,.21,12.18.31,18.78.31,15.25,0,30.39-.56,43.19-1.11a1.49,1.49,0,0,0,.86-.34,1.39,1.39,0,0,0,.83.26l7.4-.32a1.49,1.49,0,0,0,.79-.29c2.86-2.18,5.13-3.84,7.34-5.37m0-3a3,3,0,0,0-1.72.54c-2.14,1.49-4.32,3.08-7,5.14l-6.4.28a3.1,3.1,0,0,0-1.2-.24,3,3,0,0,0-1.43.36c-12.68.54-27.62,1.09-42.62,1.09-6.57,0-12.68-.1-18.68-.31h-.11a3,3,0,0,0-1.75,5.44c1.38,1,2,2.57,2.79,4.41.32.77.65,1.56,1,2.36a3,3,0,0,0,3.65,1.49l10.75-3.65,8.77-1.06.22,0a33.69,33.69,0,0,1,5.65-.43h.13c.68,0,1.35,0,2-.06l9.66-.43,3.16-.07c2.55-.07,5.18-.13,7.74-.13,1.74,0,3.3,0,4.76.09h.06a115,115,0,0,1,14.76,1.38c2.85.43,5.79,1.17,8.63,1.89l.12,0c1.29.33,2.59.66,3.84.95a2.63,2.63,0,0,0,.68.08,3,3,0,0,0,2.23-1l.74-.81a26,26,0,0,0,1.78-2,3,3,0,0,0,.62-1.88c-.11-5.57-7.22-11.79-12-13.27a3,3,0,0,0-.89-.13Z"/><path d="M129,45.64a1.47,1.47,0,0,1-.36,0c-.93-.24-2-.56-3.07-1a1.5,1.5,0,0,1-1-1.36c0-.18,0-.35,0-.52a3.46,3.46,0,0,1,.14-1.83c.58-1.56,1.23-3.07,1.86-4.54.78-1.81,1.58-3.69,2.24-5.6,1.82-5,2.1-9,.88-12.83a2.56,2.56,0,0,1-.05-1.4l.05-.31a1.46,1.46,0,0,1,.91-1.15,1.42,1.42,0,0,1,.57-.12,1.5,1.5,0,0,1,.9.3l8.3,6.18,21.06,0A41.3,41.3,0,0,0,161,10.79c-1.28-.62-2.62-1.25-4-1.92a1.5,1.5,0,0,1-.86-1.37A1.48,1.48,0,0,1,157,6.15l8-3.69a1.51,1.51,0,0,1,.63-.13,1.47,1.47,0,0,1,.46.07c.87.28,1.76.55,2.66.82a54.61,54.61,0,0,1,11.52,4.57,1.46,1.46,0,0,1,.73,1,1.49,1.49,0,0,1-.28,1.22l-5,6.41c-.14.92-.29,2.4-.48,4.33l.14,0a3.3,3.3,0,0,0,.57.2L194.4,19.6c2.2-.15,3.91-1.39,5.72-2.71.46-.34.91-.66,1.37-1l1.1-.7a1.49,1.49,0,0,1,.81-.23,1.46,1.46,0,0,1,.95.34c.83.68,1.73,1.37,2.52,2,3.27,2.49,6.58,5,8.48,9.15a6.26,6.26,0,0,1-1.49,7.46,1.53,1.53,0,0,1-.76.33c-4.86.68-9.28,1.37-13.55,2l-3.38.52-.23,0a1.51,1.51,0,0,1-1.08-.46,1.52,1.52,0,0,1-.4-1.33l.16-.79v-.11c.42-2.48.84-5,1.37-7.8-4.54-.24-9.12-.37-13.61-.37A258.91,258.91,0,0,0,140,29.47c.14,8-3.29,13.3-10.48,16.07A1.4,1.4,0,0,1,129,45.64Z"/><path class="cls-1" d="M165.59,3.83l2.69.83a52.77,52.77,0,0,1,11.21,4.43l-5,6.42a1.53,1.53,0,0,0-.28.64c-.16,1-.32,2.54-.51,4.53a1.41,1.41,0,0,0,.88,1.44l.21.09a3.67,3.67,0,0,0,1,.3H176l18.49-1.41c2.63-.18,4.6-1.62,6.5-3,.44-.33.88-.65,1.33-1l1.06-.67c.87.72,1.81,1.43,2.64,2.06,3.05,2.32,6.2,4.72,7.94,8.52a4.75,4.75,0,0,1-1.09,5.69c-4.87.68-9.3,1.37-13.58,2l-3.37.53.15-.8c.42-2.56.86-5.17,1.4-8a1.41,1.41,0,0,0-1.31-1.68c-4.6-.25-9.24-.38-13.79-.38A260.7,260.7,0,0,0,139.72,28a1.4,1.4,0,0,0-1.18,1.42c.15,7.48-2.88,12.16-9.52,14.72a29.59,29.59,0,0,1-2.92-.9c0-.21,0-.42,0-.62a2.63,2.63,0,0,1,0-1.07c.6-1.6,1.25-3.1,1.87-4.55.79-1.85,1.61-3.76,2.28-5.71,1.93-5.28,2.21-9.66.89-13.78a.49.49,0,0,0,0-.11,2.29,2.29,0,0,1,.05-.63c0-.08,0-.18,0-.28l8.3,6.18a1.44,1.44,0,0,0,.85.28H161.5a1.41,1.41,0,0,0,1.4-1.23,42.92,42.92,0,0,0-.4-11.12,1.43,1.43,0,0,0-.76-1.08c-1.32-.68-2.63-1.3-4.13-2l8-3.68m0-3a3.07,3.07,0,0,0-1.26.27l-8,3.69a3,3,0,0,0,0,5.43c1.19.56,2.25,1.06,3.29,1.59a41,41,0,0,1,.44,8.14H140.83L133,14.09a3,3,0,0,0-1.79-.6,3.06,3.06,0,0,0-1.15.23,3,3,0,0,0-1.82,2.34l0,.19v.07a4,4,0,0,0,.12,2.16c1.09,3.45.81,7.18-.87,11.77l0,.06c-.64,1.86-1.43,3.71-2.2,5.5-.6,1.4-1.27,3-1.9,4.63a5,5,0,0,0-.21,2.48l0,.43a3,3,0,0,0,2,2.71c1.11.4,2.22.74,3.2,1a3,3,0,0,0,.73.09,2.84,2.84,0,0,0,1.08-.2c7.45-2.87,11.2-8.18,11.43-16.19a256.88,256.88,0,0,1,40.86-3.3c3.9,0,7.87.1,11.82.28-.4,2.18-.74,4.24-1.07,6.25l-.15.76a3,3,0,0,0,2.95,3.57,3.42,3.42,0,0,0,.45,0l3.38-.52c4-.63,8.6-1.34,13.54-2a3,3,0,0,0,1.51-.67,7.73,7.73,0,0,0,1.9-9.22c-2.06-4.51-5.68-7.26-8.87-9.68-.82-.62-1.72-1.31-2.54-2a3,3,0,0,0-3.52-.22l-1.06.67-.08.06c-.48.33-.94.66-1.41,1-1.7,1.25-3.17,2.32-4.93,2.44l-17.46,1.33c.1-1,.19-1.79.28-2.42l4.73-6.08A3,3,0,0,0,181,6.48a55.84,55.84,0,0,0-11.81-4.69c-.91-.27-1.79-.54-2.65-.82a2.89,2.89,0,0,0-.92-.14Z"/><path d="M229.08,133.13c-.18,0-.4,0-.65,0l-.76-.06a1.47,1.47,0,0,1-1.33-1,1.5,1.5,0,0,1,.36-1.61c.19-.19.36-.35.51-.51a3.62,3.62,0,0,1,1.63-1.18c7.31-2.36,14.12-6.24,20.12-9.67,6.81-4,13.13-9.48,19.91-17.36A63.41,63.41,0,0,0,280.46,82c1-2.59,2.12-5.12,3.22-7.57l.05-.13c.64-1.42,1.25-2.8,1.84-4.18.16-.43.31-.91.49-1.59V67l-.07,1.5c-.38,0-.76,0-1.15,0a54.68,54.68,0,0,0-7,.6l-.4.06-2.63.32-.05.12,2.43,2.76a1.51,1.51,0,0,1,.28,1.52l-.11.28a3.46,3.46,0,0,1-.65,1.25l-2.77,3.71-.23.31c-2.59,3.48-5.27,7.08-8.1,10.52a61.93,61.93,0,0,1-12.3,11.45,93.32,93.32,0,0,1-12.55,7.32c-2.37,1.23-4.82,2.49-7.17,3.86a9.78,9.78,0,0,1-3.75,1h-.1a1.5,1.5,0,0,1-.71-2.82,71.34,71.34,0,0,0,21.05-17.54c5.63-6.69,9.88-14.21,14.38-22.17a.22.22,0,0,0,0-.13.14.14,0,0,0-.08-.07l-10,1.08c-7,9-16.72,14.55-26.14,19.87L226,92.92a1.48,1.48,0,0,1-.74.19,1.52,1.52,0,0,1-1.14-.52l-.42-.49a1.52,1.52,0,0,1,.13-2.1c1.32-1.18,2.66-2.36,4-3.54,3.52-3.09,7.13-6.25,10.3-9.59,5.16-5.3,8.61-10.2,10.85-15.44L246.48,57a1.51,1.51,0,0,1,1.3-2.26h4.93a.08.08,0,0,0,.08-.07c.69-12.71,1.16-24.17-.12-35.7l-4.93-4a1.51,1.51,0,0,1,.48-2.6l8.58-2.78a1.5,1.5,0,0,1,.47-.08,1.52,1.52,0,0,1,.68.17l5.41,2.76a1.47,1.47,0,0,1,.56.49l1.31,1.93h0c.59,0,29-1.65,29.27-1.67l5.69-6.09a1.47,1.47,0,0,1,1.1-.48,1.45,1.45,0,0,1,.88.29l8.37,6.07a1.54,1.54,0,0,1,.61,1l.44,3.29a1.51,1.51,0,0,1-.66,1.45c-2.89,1.9-3,4.32-2.29,8.71A84.76,84.76,0,0,1,309.14,44a17.33,17.33,0,0,1-1.48,5.37c-.29.72-.57,1.42-.81,2.13a.42.42,0,0,1,0,.1l-2,4.77a1.49,1.49,0,0,1-.44.58c-.28.23-.63.55-1,.89-1.16,1-2.42,2.17-3.68,3.43a1.5,1.5,0,0,1-.63.37l.25.07c.22,0,8.81-.45,8.81-.45L314,57.89a1.52,1.52,0,0,1,.74-.2,1.5,1.5,0,0,1,.52.1c5,1.84,6.66,3.43,9,8.51a1.53,1.53,0,0,1-.25,1.65c-.52.56-1.09,1.13-1.71,1.75s-1.2,1.21-1.88,1.92l-4.06,14.15c-.52,1.73-1,3.45-1.41,5.11-.7,2.64-1.4,5.28-2.28,7.83a11.73,11.73,0,0,1-1.77,2.94,10,10,0,0,0-1.43,2.3c-2.19,5.61-6.8,8.26-11.27,10.83-1.52.87-3,1.7-4.32,2.65a6.52,6.52,0,0,1-2.95.89c-.29,0-.57.07-.85.12l-.26,0a1.49,1.49,0,0,1-1.14-.53l-1.72-2a1.52,1.52,0,0,1-.29-1.39,12.8,12.8,0,0,0-.9-9.86,1.5,1.5,0,0,1,.13-1.58,1.47,1.47,0,0,1,1.2-.61,1.24,1.24,0,0,1,.27,0l7.42,1.35a3.24,3.24,0,0,1,.21-.35c1.12-2.13,2.79-5.32,3-5.72a151,151,0,0,0,9.51-29.91l-.08-.09H295.31l-1.25,1,1.19-.92,2.19,2.82a1.49,1.49,0,0,1,.17,1.56l-8.33,17.6c-3.9,8.07-8.4,14.38-13.76,19.3a65.44,65.44,0,0,1-10,7.36c-5.52,3.39-10.09,6-14.4,8.21a124.27,124.27,0,0,1-11.46,5c-2.16.8-4.3,1.49-6.37,2.15-1.13.37-2.17.7-3.2,1.05A2.54,2.54,0,0,1,229.08,133.13Zm33.16-74.5a1.49,1.49,0,0,1,.31,2l-2.05,2.89.06.12,37.55-1.93.25-.1a1.3,1.3,0,0,1-.37-.11l-3.61-1.64a1.5,1.5,0,0,1-.87-1.37V50.28l-.08-.07c-9.25.4-19.72.86-29.87,1.21l-.4.73c-.64,1.29-1.29,2.63-2,3.89a1.5,1.5,0,0,1-1,.72l-.14,0-.94,1.32.92-1.19Zm2.22-13.28.07.08,29.21-1.64c1-6.31.86-19.62.12-23.25l-.09-.06-4.78,0c-8,0-16.19,0-24.12,1.51l-.06,8.1a1.64,1.64,0,0,1,0,.23l16.54-1,.79-.86c1.12-1.25,2.17-2.43,3.3-3.82a1.51,1.51,0,0,1,1.1-.55h.06a1.47,1.47,0,0,1,1.07.45l5.73,5.83a1.55,1.55,0,0,1,.29.43,1.45,1.45,0,0,1,0,1.24l-1.06,2.44a1.49,1.49,0,0,1-1.23.9c-4.1.4-8.21.46-12.18.51a118,118,0,0,0-14.73.83,1.37,1.37,0,0,1-.08.35Z"/><path class="cls-1" d="M301.3,8.07l8.37,6.08.44,3.29c-3.89,2.56-3.63,6.14-2.93,10.21a85.24,85.24,0,0,1,.47,16.26,16.17,16.17,0,0,1-1.39,4.89c-.29.73-.58,1.46-.83,2.2l-2,4.77c-.31.25-.7.6-1.11,1-1.14,1-2.41,2.17-3.69,3.44L295,58.54V50.28a1.59,1.59,0,0,0-.49-1.14,1.56,1.56,0,0,0-1.09-.43h-.07c-9.28.41-19.8.87-29.85,1.21a1.58,1.58,0,0,0-1.36.88l-.34.69c-.66,1.35-1.28,2.61-2,3.81l-.14,0a1.57,1.57,0,0,0-.6,2.78l2.22,1.7-2.05,2.89a1.58,1.58,0,0,0,1.28,2.49l37.63-1.93a1.53,1.53,0,0,0,.6-.16,1.71,1.71,0,0,0,.55.09l8.84-.45a1.53,1.53,0,0,0,.69-.2l5.91-3.35c4.56,1.69,6,3,8.19,7.74-.5.55-1.06,1.11-1.66,1.71s-1.22,1.23-1.91,2a1.62,1.62,0,0,0-.37.65l-4,14.11c-.52,1.76-1,3.52-1.43,5.22-.68,2.54-1.38,5.17-2.23,7.66a10.63,10.63,0,0,1-1.56,2.53,11.38,11.38,0,0,0-1.63,2.66c-2,5.1-6.17,7.51-10.61,10.06-1.55.89-3,1.73-4.43,2.72a5.3,5.3,0,0,1-2.29.63l-.91.13-1.71-2a14.24,14.24,0,0,0-1-11l7.42,1.35a1.43,1.43,0,0,0,.29,0,1.57,1.57,0,0,0,1.51-1.15s2.77-5.24,3-5.84a152.38,152.38,0,0,0,9.6-30.2,1.57,1.57,0,0,0-1.55-1.88H295.31a1.59,1.59,0,0,0-1.42.88,1.6,1.6,0,0,0,.17,1.66l2.2,2.82-8.34,17.6a61,61,0,0,1-13.42,18.84,64.27,64.27,0,0,1-9.77,7.18c-5.48,3.37-10,6-14.29,8.15a123.07,123.07,0,0,1-11.33,5c-2.09.77-4.22,1.45-6.27,2.12l-3.22,1-.14.05a.94.94,0,0,1-.4.07c-.16,0-.35,0-.57,0l-.77-.05.54-.54c.46-.47.71-.72.93-.77,7.56-2.44,14.44-6.37,20.51-9.84,7-4,13.4-9.66,20.28-17.67a65.18,65.18,0,0,0,11.87-20.17c1-2.53,2.09-5,3.18-7.48.66-1.48,1.29-2.91,1.9-4.33a17.73,17.73,0,0,0,.56-1.8,1.57,1.57,0,0,0-1.45-2l-1.22,0a55.26,55.26,0,0,0-7.22.62l-.17,0-2.82.35a1.57,1.57,0,0,0-1,2.6L276,73.29l-.1.28a2.88,2.88,0,0,1-.36.78l-.09.1-3,4c-2.57,3.46-5.24,7-8.05,10.45a60.44,60.44,0,0,1-12,11.19,92.39,92.39,0,0,1-12.37,7.21c-2.39,1.23-4.85,2.5-7.24,3.89a8.05,8.05,0,0,1-3.09.76,73,73,0,0,0,21.49-17.89c5.72-6.8,10-14.38,14.54-22.4a1.68,1.68,0,0,0,0-1.69,1.6,1.6,0,0,0-1.31-.75h-.15l-10.09,1.08a1.59,1.59,0,0,0-1.08.61c-6.74,8.78-16.36,14.21-25.65,19.46l-2.14,1.2-.42-.49q2-1.77,4-3.53c3.54-3.11,7.17-6.29,10.4-9.69,5.28-5.42,8.82-10.47,11.14-15.88a1.59,1.59,0,0,0-.09-1.41l-2.53-4.39h4.93a1.58,1.58,0,0,0,1.58-1.48c.69-12.78,1.16-24.31-.13-35.95a1.58,1.58,0,0,0-.57-1.05l-4.91-4L257.27,11l5.41,2.77L264,15.65a1.59,1.59,0,0,0,1.3.69l29.31-1.7a1.56,1.56,0,0,0,1.06-.5l5.64-6.07m-38,22.37v-.1a1.53,1.53,0,0,0,.29.9,1,1,0,0,0,.19.22,1.57,1.57,0,0,0,1.08.43H265c4.56-.32,9-.59,13.35-.85l3.11-.19a1.58,1.58,0,0,0,1.08-.53l.74-.83c1.19-1.34,2.21-2.49,3.34-3.87l5.73,5.83h0l0,0-1.06,2.44c-4,.39-8.12.45-12.06.5a117.77,117.77,0,0,0-14.92.85A1.57,1.57,0,0,0,263,36.64h0s0,.1,0,.15v8.56a1.56,1.56,0,0,0,.49,1.15,1.6,1.6,0,0,0,1.08.43l29.3-1.64a1.58,1.58,0,0,0,1.47-1.35c.92-6.5.81-19.88,0-23.7A1.58,1.58,0,0,0,293.79,19h0L289,19c-8,0-16.33,0-24.4,1.53a1.58,1.58,0,0,0-1.28,1.55v8.23c0,.05,0,.09,0,.13m-.34,6.2v.18c0-.06,0-.12,0-.18M301.3,5.07a3,3,0,0,0-2.2,1l-5.25,5.65L266,13.29,265.16,12a3,3,0,0,0-1.12-1l-5.41-2.76A3,3,0,0,0,257.27,8a2.92,2.92,0,0,0-.93.15l-8.58,2.79a3,3,0,0,0-1,5.18l4.45,3.62c1.14,10.81.76,21.63.12,33.52h-3.58a3,3,0,0,0-2.6,4.51l2.17,3.76a49.93,49.93,0,0,1-10.24,14.32c-3.15,3.31-6.73,6.46-10.2,9.5-1.27,1.12-2.68,2.36-4,3.58a3,3,0,0,0-.27,4.18l.43.5a3,3,0,0,0,2.27,1,2.9,2.9,0,0,0,1.48-.39l2.13-1.2c9.4-5.31,19.1-10.79,26.18-19.76l6.73-.72c-4,7-7.91,13.68-12.91,19.62a70,70,0,0,1-20.61,17.18,3,3,0,0,0,1.42,5.64h.21a11,11,0,0,0,4.22-1.06l.17-.1c2.34-1.36,4.76-2.61,7.11-3.81a95,95,0,0,0,12.76-7.46,63,63,0,0,0,12.58-11.73c2.83-3.44,5.52-7,8.12-10.54l.12-.16q1.41-1.9,2.84-3.8a5,5,0,0,0,.9-1.71l.1-.24a3,3,0,0,0-.55-3l-.65-.73.18,0,.18,0c2.07-.27,4-.52,6-.58-.53,1.25-1.09,2.51-1.69,3.83l0,.06c-1.11,2.47-2.25,5-3.24,7.64a62.23,62.23,0,0,1-11.34,19.28c-6.66,7.75-12.86,13.16-19.52,17-5.92,3.38-12.63,7.21-19.87,9.55a5.13,5.13,0,0,0-2.2,1.55c-.15.15-.3.31-.48.48a3,3,0,0,0,1.94,5.15l.63.05h.06a6.56,6.56,0,0,0,.79,0,4,4,0,0,0,1.54-.29c1-.33,1.93-.63,2.95-1l.18-.06c2.09-.67,4.25-1.37,6.4-2.16l.06,0c3.76-1.49,7.76-3.1,11.6-5.08,4.33-2.22,8.94-4.85,14.49-8.26a68,68,0,0,0,10.23-7.53c5.51-5.06,10.12-11.51,14.1-19.75L299,72.9a3,3,0,0,0-.35-3.12l-.4-.52h7.5a153.13,153.13,0,0,1-9.07,27.92c-.17.37-1.39,2.72-2.58,5L287.71,101a3.29,3.29,0,0,0-.54,0,3,3,0,0,0-2.67,4.37,11.16,11.16,0,0,1,.8,8.75,3,3,0,0,0,.58,2.78l1.72,2a3,3,0,0,0,2.29,1.07,2.92,2.92,0,0,0,.51,0l.79-.12a7.82,7.82,0,0,0,3.64-1.16c1.28-.89,2.69-1.7,4.19-2.56,4.69-2.7,9.54-5.49,11.91-11.57a9.12,9.12,0,0,1,1.23-2,12.86,12.86,0,0,0,2-3.28l0-.08c.89-2.59,1.6-5.27,2.29-7.86v-.06c.44-1.66.9-3.37,1.4-5.07l4-13.81c.54-.56,1.05-1.08,1.61-1.63l.05,0c.6-.61,1.17-1.18,1.7-1.76a3,3,0,0,0,.51-3.29c-2.53-5.41-4.55-7.32-9.86-9.29a3.19,3.19,0,0,0-1.05-.19,3,3,0,0,0-1.48.39l-5.61,3.18-4.51.24,1.13-1c.37-.34.75-.67,1-.88a2.91,2.91,0,0,0,.87-1.15l2-4.77a1.43,1.43,0,0,0,.08-.22c.23-.65.49-1.31.77-2a18.46,18.46,0,0,0,1.6-5.87,86.22,86.22,0,0,0-.5-16.87c-.76-4.42-.42-5.9,1.62-7.25a3,3,0,0,0,1.32-2.9l-.44-3.29a2.93,2.93,0,0,0-1.21-2l-8.37-6.08a3,3,0,0,0-1.76-.57Zm-35,18.2C273.74,22,281.49,22,289,22h3.57c.17,1.41.29,3.44.35,5.74l-4.15-4.22a3,3,0,0,0-2.14-.9h-.13a3,3,0,0,0-2.19,1.1c-1.09,1.33-2.1,2.46-3.26,3.77l-.35.4-1.38,1.55c-3.84.23-8.95.54-13,.82v-7ZM266,36.57a129.63,129.63,0,0,1,13.31-.66c4,0,8.16,1.39,12.33,1a2.94,2.94,0,0,0,1.27-.42c-.08,2.16-.21,4.2-.4,5.89L266,43.84V36.57Zm-1.49,16.32c9.38-.33,19.29-.76,27.54-1.12v6.77a3,3,0,0,0,.75,2L263.43,62l.34-.49a3,3,0,0,0-.61-4.11l-.75-.58,0-.08c.71-1.26,1.34-2.54,2-3.89Z"/><path class="cls-2" d="M200.12,69.86l-4.93.4-4.93.39,9.86-.79,4.92-.39-.39-4.93-.39-4.92-4.93.39-.39-4.93-.4-4.92-4.93.39-.39-4.92-.39-4.93-4.93.39-.4-4.92-4.92.39-.4-4.93-4.92.4-4.93.39-4.93.4.4,4.92-4.93.4-.39-4.93-4.93.4-4.93.39-4.92.39.39,4.93-4.93.4.4,4.92.39,4.93L139,50l.39,4.93.39,4.93.4,4.92-4.93.4.4,4.92.39,4.93.4,4.93,4.92-.4.4,4.93,4.92-.39,4.93-.4.39,4.93,4.93-.4,4.93-.39,4.92-.39,4.93-.4,4.93-.39,4.92-.4,4.93-.39,4.93-.4-.4-4.92-4.92.39-2.88.23,2-.16h0l5.81-.46,4.93-.4-.39-4.92,4.92-.4Zm-44.74-1.37Zm23.49,13-.52,0,.52,0Z"/><path class="cls-1" d="M24.42,134v3.8H21.37V134l-6.15-6.2v22.25h-3V124.23a1.41,1.41,0,0,1,.95-1.4,1.32,1.32,0,0,1,.55-.1,1.44,1.44,0,0,1,1,.45l8.05,8L31,123.08a1.44,1.44,0,0,1,1.05-.45,1.39,1.39,0,0,1,.55.1,1.43,1.43,0,0,1,1,1.4v26.05h-3V127.73Z"/><path class="cls-3" d="M45.27,148.63l-8.06-8.15a1.47,1.47,0,0,1-.44-1v-10.7h3v10.1l7.65,7.65L52,141.93v-13.2h3v13.8a1.43,1.43,0,0,1-.44,1.05L39.17,158.93l-2.1-2.1Z"/><path class="cls-1" d="M70.56,123.63h3v23.45h12.1v3H70.56Z"/><path class="cls-1" d="M91.54,140.83v4.1l2.15,2.25h13.15V150H93.09a1.35,1.35,0,0,1-1-.4l-3.1-3a1.39,1.39,0,0,1-.4-1.05v-12.1a1.47,1.47,0,0,1,.5-1l3-3.15a1.61,1.61,0,0,1,1.1-.55h9.05a1.59,1.59,0,0,1,1,.55l3,3.1a1.4,1.4,0,0,1,.45,1v7.45Zm0-3.1h12.25V134l-2.15-2.2h-7.9L91.59,134Z"/><path class="cls-1" d="M116.5,130.43l1.2-1.2a1.44,1.44,0,0,1,1-.45H125a1.39,1.39,0,0,1,1,.4l3,2.9a1.44,1.44,0,0,1,.45,1V150H126.5V133.73l-2.15-2h-5l-2.1,2.2V150h-3V133.28a2.62,2.62,0,0,1,.2-.6l-.9-1H111.1v-3h3.15a1.15,1.15,0,0,1,1,.45Z"/><path class="cls-1" d="M139.92,130.43l1.2-1.2a1.44,1.44,0,0,1,1-.45h6.2a1.39,1.39,0,0,1,1,.4l2.95,2.9a1.44,1.44,0,0,1,.45,1V150h-2.85V133.73l-2.15-2h-5l-2.1,2.2V150h-3V133.28a3.33,3.33,0,0,1,.2-.6l-.9-1h-2.45v-3h3.15a1.14,1.14,0,0,1,1,.45Z"/><path class="cls-1" d="M159.42,132.18l3.05-3.15a1.37,1.37,0,0,1,1-.35h9.4a1.54,1.54,0,0,1,1.1.5l2.8,3.15a1.3,1.3,0,0,1,.4.95v12.25a1.44,1.44,0,0,1-.45,1.05l-2.9,2.95a1.3,1.3,0,0,1-1,.35h-9.3a1.55,1.55,0,0,1-1-.35l-3.1-2.9a1.38,1.38,0,0,1-.45-1.1V133.18A1.47,1.47,0,0,1,159.42,132.18Zm2.5,1.65v11.1l2.15,2.1h8.1l2-2.1v-11.1l-1.95-2.2h-8.15Z"/><path class="cls-1" d="M186.72,130.43l1.2-1.2a1.44,1.44,0,0,1,1.05-.45h6.2a1.39,1.39,0,0,1,1,.4l3,2.9a1.44,1.44,0,0,1,.45,1V150h-2.85V133.73l-2.15-2h-5l-2.1,2.2V150h-3V133.28a2.62,2.62,0,0,1,.2-.6l-.9-1h-2.45v-3h3.15a1.15,1.15,0,0,1,.95.45Z"/><path class="cls-1" d="M219.35,166.78V145.33h-3v-3H230a1.9,1.9,0,0,1,1.1.45l6,6.25a1.35,1.35,0,0,1,.4,1,1.55,1.55,0,0,1-.45,1.15L232,156,237,161a1.4,1.4,0,0,1,.45,1,1.49,1.49,0,0,1-.45,1.1l-6.1,6.25a1.44,1.44,0,0,1-1.05.45H216.3v-3Zm9.85-12.25,4.65-4.5-4.55-4.7h-6.9v9.2Zm.05,3.05H222.4v9.2h6.8l4.65-4.7Z"/><path class="cls-1" d="M255,168l-1.2,1.2a1.44,1.44,0,0,1-1,.45h-6.93a1.35,1.35,0,0,1-1-.4l-2.95-2.9a1.44,1.44,0,0,1-.45-1l0-16.85,2.9,0,.1,16.3,2,2.05h5.73l2.1-2.2,0-16.15h3l-.05,16.75a1.55,1.55,0,0,1-.15.6l.9,1h2.45v2.95h-3.05a1.27,1.27,0,0,1-1-.45Z"/><path class="cls-1" d="M280.84,169.68h-10.6a1.42,1.42,0,0,1-1.05-.4L263,163.23a1.44,1.44,0,0,1-.45-1V156A1.44,1.44,0,0,1,263,155l6-6a1.4,1.4,0,0,1,1-.45h7.8v-9.2h3Zm-3-2.9V151.43h-7.15l-5.15,5.2v5l5.3,5.2Z"/><path class="cls-1" d="M303.24,169.68h-10.6a1.42,1.42,0,0,1-1.05-.4l-6.15-6.05a1.44,1.44,0,0,1-.45-1V156a1.44,1.44,0,0,1,.45-1.05l6-6a1.4,1.4,0,0,1,1-.45h7.8v-9.2h3Zm-3-2.9V151.43h-7.15l-5.15,5.2v5l5.3,5.2Z"/><path class="cls-1" d="M316.42,168.33l-8.05-8.15a1.44,1.44,0,0,1-.45-1.05v-10.7h3v10.1l7.65,7.65,4.55-4.55v-13.2h3v13.8a1.44,1.44,0,0,1-.45,1.05l-15.35,15.35-2.1-2.1Z"/><path class="cls-1" d="M3,110.48c17.29-7.81,32.14-19.07,45.35-34.36a1.42,1.42,0,0,0,.28-1.35C46.9,69.3,45.25,64,43.51,58.29l-1.78-5.78a1.4,1.4,0,0,0-1.1-1,1.32,1.32,0,0,0-.28,0,1.39,1.39,0,0,0-1.09.56,20.47,20.47,0,0,0-2,3.38c-1,2.06-2,4-4.12,5.23-1.87-2-3.76-3.87-6.14-6.24.76-.37,1.49-.77,2.25-1.19s1.65-.9,2.52-1.31c5.91-2.88,9-6.36,10-11.3a.77.77,0,0,0,0-.15,2.59,2.59,0,0,1,.38-.42l.28-.28c1.25.92,2.46,1.84,3.73,2.82l.12.09c.94.73,1.91,1.47,2.93,2.23l-2.76,4.73a1.49,1.49,0,0,0-.19.77c.16,4.43,2.45,7.94,4.88,11.65.62.94,1.25,1.9,1.84,2.89a1.44,1.44,0,0,0,1.16.68h.09a1.41,1.41,0,0,0,1.11-.59c5.84-8.16,8.4-17.32,11.12-27,.33-1.21.67-2.43,1-3.65a1.41,1.41,0,0,0-1.29-1.8c-4.18-.2-8.06-.26-11.86-.16-16.22.41-30.18,3.7-42.67,10.07L4.62,32,46.33,28.7a1.41,1.41,0,0,0,1.3-1.44l-.37-15A1.44,1.44,0,0,0,46.5,11l-4.23-2.2L51,3,65,9.12l-3.93,5.77a1.36,1.36,0,0,0-.25.83l.26,10.16a1.41,1.41,0,0,0,1.44,1.38l17.31-.44a1.41,1.41,0,0,0,1-.48l4.89-5.55L97.61,33.1l-.83.76c-1.08,1-2,1.83-2.55,2.38L73.45,32.71l-.27,0a1.41,1.41,0,0,0-.92,2.46L82,44.08c-5.11,2-7.09,6-9,10-.38.78-.74,1.52-1.13,2.25-1.73,3.18-3.68,6.29-5.57,9.3-1.08,1.71-2.15,3.42-3.2,5.15A17.57,17.57,0,0,1,62,72.57a1.41,1.41,0,0,0,.29,1.9l1.23,1a26.76,26.76,0,0,0,3.57,2.65A106.35,106.35,0,0,0,88.23,87.3L105.91,92l-2.43,1c-1.5.61-3,1.19-4.5,1.77-2.87,1.11-5.56,2.14-8.21,3.34a7.64,7.64,0,0,0-2.46,2.24c-.27.33-.54.66-.82,1a98,98,0,0,1-32.88-17.9,1.39,1.39,0,0,0-.93-.32,1.33,1.33,0,0,0-.71.21c-2.48,1.55-5,3.14-7.36,4.68-5.81,3.71-11.8,7.55-17.93,10.85L24.2,100.8C17.49,104.56,10.57,108.43,3,110.48Z"/><path class="cls-1" d="M127.62,102.15c-.35-.7-.66-1.44-1-2.15-.86-2.08-1.74-4.22-3.81-5.71,6,.21,12.18.31,18.78.31,15.25,0,30.39-.56,43.19-1.11a1.46,1.46,0,0,0,.86-.34,1.39,1.39,0,0,0,.83.26l7.4-.32a1.49,1.49,0,0,0,.79-.29c2.86-2.18,5.13-3.84,7.34-5.37,4.16,1.29,9.78,6.66,9.85,10.46-.45.58-1,1.19-1.59,1.82l-.78.84c-1.22-.29-2.51-.61-3.8-.94l-.1,0c-2.92-.74-5.94-1.5-8.92-2a115.67,115.67,0,0,0-15.15-1.42c-1.49-.06-3.09-.09-4.88-.09-2.59,0-5.24.06-7.8.13l-3.2.07-9.69.43c-.68,0-1.37,0-2.06.06a35.67,35.67,0,0,0-6.18.48l-8.94,1.08a1.28,1.28,0,0,0-.28.07Zm1.4-58a29.59,29.59,0,0,1-2.92-.9c0-.21,0-.42,0-.62a2.63,2.63,0,0,1,0-1.07c.6-1.6,1.25-3.1,1.87-4.55.79-1.85,1.61-3.76,2.28-5.71,1.93-5.28,2.21-9.66.89-13.78a.49.49,0,0,0,0-.11,2.29,2.29,0,0,1,.05-.63c0-.08,0-.18,0-.28l8.3,6.18a1.44,1.44,0,0,0,.85.28H161.5a1.41,1.41,0,0,0,1.4-1.23,42.92,42.92,0,0,0-.4-11.12,1.43,1.43,0,0,0-.76-1.08c-1.32-.68-2.63-1.3-4.13-2l8-3.68,2.69.83a52.77,52.77,0,0,1,11.21,4.43l-5,6.42a1.52,1.52,0,0,0-.28.65c-.16,1-.32,2.53-.51,4.52a1.41,1.41,0,0,0,.88,1.44l.21.09a3.67,3.67,0,0,0,1,.3H176l18.49-1.41c2.63-.18,4.6-1.62,6.5-3,.44-.33.88-.65,1.33-.95l1.06-.67c.87.72,1.81,1.43,2.64,2.06,3.05,2.32,6.2,4.72,7.94,8.52a4.75,4.75,0,0,1-1.09,5.69c-4.87.68-9.3,1.37-13.58,2l-3.37.53.15-.8c.42-2.56.86-5.17,1.4-8a1.41,1.41,0,0,0-1.31-1.68c-4.6-.25-9.24-.38-13.79-.38A260.7,260.7,0,0,0,139.72,28a1.4,1.4,0,0,0-1.18,1.42C138.69,36.88,135.66,41.56,129,44.12Z"/><path class="cls-1" d="M229.08,131.61c-.16,0-.35,0-.57,0l-.77,0,.54-.54c.46-.47.71-.72.93-.77,7.56-2.44,14.44-6.37,20.51-9.84,7-4.05,13.4-9.66,20.28-17.67a65.18,65.18,0,0,0,11.87-20.17c1-2.53,2.09-5,3.18-7.48.66-1.48,1.29-2.91,1.9-4.33a17.73,17.73,0,0,0,.56-1.8,1.57,1.57,0,0,0-1.45-2l-1.22,0a55.26,55.26,0,0,0-7.22.62l-.17,0-2.82.35a1.55,1.55,0,0,0-1.3,1,1.58,1.58,0,0,0,.29,1.61L276,73.27l-.1.28a2.88,2.88,0,0,1-.36.78l-.09.1-3,4c-2.57,3.46-5.24,7-8.05,10.45a60.44,60.44,0,0,1-12,11.19,92.39,92.39,0,0,1-12.37,7.21c-2.39,1.23-4.85,2.5-7.24,3.89a8.05,8.05,0,0,1-3.09.76,73.12,73.12,0,0,0,21.49-17.89c5.72-6.8,10-14.38,14.54-22.4a1.68,1.68,0,0,0,0-1.69,1.6,1.6,0,0,0-1.31-.75h-.15l-10.09,1.08a1.59,1.59,0,0,0-1.08.61c-6.74,8.78-16.36,14.21-25.65,19.46l-2.14,1.2-.42-.49q2-1.77,4-3.53c3.54-3.11,7.17-6.29,10.4-9.69,5.28-5.42,8.82-10.47,11.14-15.88a1.59,1.59,0,0,0-.09-1.41l-2.53-4.39h4.94a1.58,1.58,0,0,0,1.57-1.48c.69-12.78,1.16-24.31-.13-35.95a1.58,1.58,0,0,0-.57-1.05l-4.91-4,8.59-2.79,5.41,2.77L264,15.63a1.56,1.56,0,0,0,1.3.69l29.31-1.7a1.56,1.56,0,0,0,1.06-.5l5.64-6.07,8.37,6.08.44,3.29c-3.89,2.56-3.63,6.14-2.93,10.21a85.24,85.24,0,0,1,.47,16.26,16.17,16.17,0,0,1-1.39,4.89c-.29.73-.58,1.46-.83,2.2l-2,4.77c-.31.25-.7.6-1.11,1-1.14,1-2.41,2.17-3.69,3.44L295,58.52V50.26a1.59,1.59,0,0,0-.49-1.14,1.56,1.56,0,0,0-1.09-.43h-.07c-9.28.41-19.8.87-29.85,1.21a1.58,1.58,0,0,0-1.36.88l-.34.69c-.66,1.35-1.28,2.61-2,3.81l-.14,0a1.57,1.57,0,0,0-.6,2.78l2.22,1.7-2.05,2.89a1.58,1.58,0,0,0,1.28,2.49l37.63-1.93a1.53,1.53,0,0,0,.6-.16,1.72,1.72,0,0,0,.55.1l8.84-.46a1.53,1.53,0,0,0,.69-.2l5.91-3.35c4.56,1.69,6,3,8.19,7.74-.5.55-1.06,1.11-1.66,1.71s-1.22,1.23-1.91,1.95a1.62,1.62,0,0,0-.37.65l-4,14.11c-.52,1.77-1,3.52-1.43,5.22-.68,2.54-1.38,5.17-2.23,7.66a10.43,10.43,0,0,1-1.56,2.53,11.38,11.38,0,0,0-1.63,2.66c-2,5.1-6.17,7.51-10.61,10.06-1.55.89-3,1.74-4.43,2.72a5.3,5.3,0,0,1-2.29.63l-.91.13-1.71-2a14.24,14.24,0,0,0-1-11l7.42,1.35a1.43,1.43,0,0,0,.29,0,1.57,1.57,0,0,0,1.51-1.15s2.77-5.24,3-5.84a152.38,152.38,0,0,0,9.6-30.2,1.57,1.57,0,0,0-1.55-1.88H295.31a1.59,1.59,0,0,0-1.42.88,1.6,1.6,0,0,0,.17,1.66l2.19,2.82-8.33,17.6A61,61,0,0,1,274.5,108a64.27,64.27,0,0,1-9.77,7.18c-5.48,3.37-10,6-14.29,8.15a123.07,123.07,0,0,1-11.33,5c-2.09.77-4.22,1.45-6.28,2.12l-3.21,1-.14,0A.94.94,0,0,1,229.08,131.61Zm62.21-97.75c-4,.4-8.11.45-12.06.51a117.85,117.85,0,0,0-14.92.84A1.57,1.57,0,0,0,263,36.77v8.56a1.56,1.56,0,0,0,.49,1.15,1.6,1.6,0,0,0,1.08.43l29.3-1.64a1.58,1.58,0,0,0,1.47-1.35c.92-6.5.81-19.88,0-23.7A1.58,1.58,0,0,0,293.79,19h0L289,19c-8,0-16.33,0-24.4,1.53a1.58,1.58,0,0,0-1.28,1.55v8.23a1.57,1.57,0,0,0,1.58,1.58H265c4.56-.32,9-.59,13.35-.85l3.11-.19a1.58,1.58,0,0,0,1.08-.53l.74-.83c1.19-1.34,2.21-2.49,3.34-3.87l5.73,5.83Z"/><rect x="158.92" y="48.18" width="4.94" height="4.94" transform="translate(-3.53 13.04) rotate(-4.58)"/><rect x="178.63" y="46.6" width="4.94" height="4.94" transform="translate(-3.34 14.61) rotate(-4.58)"/><rect class="cls-3" x="185.13" y="65.92" width="4.94" height="4.94" transform="translate(-4.86 15.19) rotate(-4.58)"/><polyline class="cls-3" points="185.19 69.18 185.34 71.05 180.41 71.44 180.02 66.52 184.94 66.12 185.19 69.18"/><rect class="cls-3" x="175.28" y="66.7" width="4.94" height="4.94" transform="translate(-4.95 14.4) rotate(-4.58)"/><rect class="cls-3" x="170.35" y="67.1" width="4.94" height="4.94" transform="matrix(1, -0.08, 0.08, 1, -5, 14.01)"/><rect class="cls-3" x="165.43" y="67.49" width="4.94" height="4.94" transform="translate(-5.05 13.62) rotate(-4.58)"/><rect class="cls-1" x="147.89" y="34.19" width="4.94" height="4.94" transform="translate(-2.45 12.11) rotate(-4.58)"/><rect class="cls-1" x="143.35" y="39.51" width="4.94" height="4.94" transform="matrix(1, -0.08, 0.08, 1, -2.88, 11.77)"/><rect class="cls-1" x="143.75" y="44.44" width="4.94" height="4.94" transform="translate(-3.28 11.82) rotate(-4.58)"/><rect class="cls-1" x="144.14" y="49.36" width="4.94" height="4.94" transform="translate(-3.67 11.86) rotate(-4.58)"/><rect class="cls-1" x="139.22" y="49.76" width="4.94" height="4.94" transform="translate(-3.72 11.47) rotate(-4.58)"/><rect class="cls-1" x="139.61" y="54.68" width="4.94" height="4.94" transform="translate(-4.11 11.52) rotate(-4.58)"/><rect class="cls-1" x="140" y="59.61" width="4.94" height="4.94" transform="translate(-4.5 11.57) rotate(-4.58)"/><rect class="cls-1" x="135.47" y="64.93" width="4.94" height="4.94" transform="translate(-4.94 11.22) rotate(-4.58)"/><rect class="cls-1" x="135.87" y="69.86" width="4.94" height="4.94" transform="matrix(1, -0.08, 0.08, 1, -5.33, 11.27)"/><rect class="cls-1" x="136.26" y="74.79" width="4.94" height="4.94" transform="matrix(1, -0.08, 0.08, 1, -5.72, 11.31)"/><rect class="cls-1" x="141.58" y="79.32" width="4.94" height="4.94" transform="translate(-6.07 11.75) rotate(-4.58)"/><rect class="cls-1" x="146.51" y="78.92" width="4.94" height="4.94" transform="translate(-6.02 12.15) rotate(-4.58)"/><rect class="cls-1" x="152.81" y="33.79" width="4.94" height="4.94" transform="translate(-2.4 12.5) rotate(-4.58)"/><rect class="cls-1" x="157.74" y="33.4" width="4.94" height="4.94" transform="translate(-2.35 12.9) rotate(-4.58)"/><rect class="cls-1" x="167.59" y="32.61" width="4.94" height="4.94" transform="translate(-2.26 13.68) rotate(-4.58)"/><rect class="cls-1" x="172.52" y="32.22" width="4.94" height="4.94" transform="translate(-2.21 14.07) rotate(-4.58)"/><rect class="cls-1" x="177.45" y="31.82" width="4.94" height="4.94" transform="translate(-2.16 14.46) rotate(-4.58)"/><rect class="cls-1" x="182.77" y="36.36" width="4.94" height="4.94" transform="translate(-2.51 14.9) rotate(-4.58)"/><rect class="cls-1" x="188.09" y="40.89" width="4.94" height="4.94" transform="translate(-2.85 15.34) rotate(-4.58)"/><rect class="cls-1" x="188.48" y="45.81" width="4.94" height="4.94" transform="matrix(1, -0.08, 0.08, 1, -3.24, 15.39)"/><rect class="cls-1" x="193.8" y="50.35" width="4.94" height="4.94" transform="translate(-3.59 15.83) rotate(-4.58)"/><rect class="cls-1" x="194.2" y="55.27" width="4.94" height="4.94" transform="translate(-3.98 15.87) rotate(-4.58)"/><rect class="cls-1" x="194.59" y="60.2" width="4.94" height="4.94" transform="translate(-4.37 15.92) rotate(-4.58)"/><rect class="cls-1" x="199.52" y="59.81" width="4.94" height="4.94" transform="matrix(1, -0.08, 0.08, 1, -4.32, 16.31)"/><rect class="cls-1" x="195.38" y="70.05" width="4.94" height="4.94" transform="translate(-5.16 16.02) rotate(-4.58)"/><rect class="cls-1" x="190.85" y="75.38" width="4.94" height="4.94" transform="matrix(1, -0.08, 0.08, 1, -5.59, 15.67)"/><rect class="cls-1" x="186.32" y="80.7" width="4.94" height="4.94" transform="translate(-6.03 15.33) rotate(-4.58)"/><rect class="cls-1" x="181.39" y="81.09" width="4.94" height="4.94" transform="matrix(1, -0.08, 0.08, 1, -6.08, 14.94)"/><rect class="cls-1" x="176.46" y="81.48" width="4.94" height="4.94" transform="translate(-6.13 14.54) rotate(-4.58)"/><rect class="cls-1" x="171.54" y="81.88" width="4.94" height="4.94" transform="matrix(1, -0.08, 0.08, 1, -6.18, 14.15)"/><rect class="cls-1" x="166.61" y="82.27" width="4.94" height="4.94" transform="translate(-6.22 13.76) rotate(-4.58)"/><rect class="cls-1" x="161.68" y="82.67" width="4.94" height="4.94" transform="translate(-6.27 13.37) rotate(-4.58)"/><rect class="cls-1" x="156.76" y="83.06" width="4.94" height="4.94" transform="translate(-6.32 12.98) rotate(-4.58)"/><rect class="cls-1" x="151.83" y="83.46" width="4.94" height="4.94" transform="matrix(1, -0.08, 0.08, 1, -6.36, 12.58)"/><rect class="cls-1" x="199.91" y="64.73" width="4.94" height="4.94" transform="matrix(1, -0.08, 0.08, 1, -4.72, 16.36)"/><rect class="cls-1" x="163.06" y="37.93" width="4.94" height="4.94" transform="matrix(1, -0.08, 0.08, 1, -2.7, 13.34)"/><rect class="cls-1" x="148.67" y="44.04" width="4.94" height="4.94" transform="translate(-3.23 12.21) rotate(-4.58)"/><rect class="cls-1" x="153.6" y="43.65" width="4.94" height="4.94" transform="translate(-3.18 12.6) rotate(-4.58)"/><rect class="cls-1" x="154" y="48.58" width="4.94" height="4.94" transform="translate(-3.57 12.65) rotate(-4.58)"/><rect class="cls-1" x="158.53" y="43.25" width="4.94" height="4.94" transform="translate(-3.13 12.99) rotate(-4.58)"/><rect class="cls-1" x="154.39" y="53.5" width="4.94" height="4.94" transform="matrix(1, -0.08, 0.08, 1, -3.97, 12.69)"/><rect class="cls-1" x="159.32" y="53.11" width="4.94" height="4.94" transform="translate(-3.92 13.09) rotate(-4.58)"/><rect class="cls-1" x="168.38" y="42.47" width="4.94" height="4.94" transform="translate(-3.04 13.77) rotate(-4.58)"/><rect class="cls-1" x="163.85" y="47.79" width="4.94" height="4.94" transform="translate(-3.48 13.43) rotate(-4.58)"/><rect class="cls-1" x="173.31" y="42.07" width="4.94" height="4.94" transform="translate(-2.99 14.17) rotate(-4.58)"/><rect class="cls-1" x="178.23" y="41.68" width="4.94" height="4.94" transform="translate(-2.95 14.56) rotate(-4.58)"/><rect class="cls-1" x="174.1" y="51.92" width="4.94" height="4.94" transform="translate(-3.78 14.26) rotate(-4.58)"/><rect class="cls-1" x="179.02" y="51.53" width="4.94" height="4.94" transform="translate(-3.73 14.65) rotate(-4.58)"/><rect class="cls-1" x="173.7" y="47" width="4.94" height="4.94" transform="matrix(1, -0.08, 0.08, 1, -3.39, 14.21)"/><rect class="cls-1" x="189.67" y="60.59" width="4.94" height="4.94" transform="translate(-4.42 15.53) rotate(-4.58)"/><rect class="cls-1" x="155.18" y="63.36" width="4.94" height="4.94" transform="translate(-4.75 12.79) rotate(-4.58)"/><rect class="cls-1" x="150.25" y="63.75" width="4.94" height="4.94" transform="translate(-4.8 12.4) rotate(-4.58)"/><rect class="cls-1" x="155.57" y="68.28" width="4.94" height="4.94" transform="translate(-5.14 12.83) rotate(-4.58)"/><rect class="cls-1" x="160.5" y="67.89" width="4.94" height="4.94" transform="translate(-5.09 13.23) rotate(-4.58)"/><rect class="cls-1" x="175.67" y="71.63" width="4.94" height="4.94" transform="translate(-5.34 14.45) rotate(-4.58)"/><rect class="cls-1" x="170.75" y="72.03" width="4.94" height="4.94" transform="matrix(1, -0.08, 0.08, 1, -5.39, 14.06)"/><rect class="cls-1" x="165.82" y="72.42" width="4.94" height="4.94" transform="translate(-5.44 13.67) rotate(-4.58)"/><rect class="cls-1" x="160.89" y="72.81" width="4.94" height="4.94" transform="translate(-5.49 13.27) rotate(-4.58)"/><rect class="cls-1" x="180.6" y="71.24" width="4.94" height="4.94" transform="translate(-5.3 14.84) rotate(-4.58)"/><rect class="cls-1" x="185.53" y="70.84" width="4.94" height="4.94" transform="translate(-5.25 15.23) rotate(-4.58)"/><rect class="cls-1" x="190.45" y="70.45" width="4.94" height="4.94" transform="translate(-5.2 15.62) rotate(-4.58)"/><rect class="cls-1" x="183.16" y="41.28" width="4.94" height="4.94" transform="matrix(1, -0.08, 0.08, 1, -2.9, 14.95)"/><rect class="cls-1" x="183.56" y="46.21" width="4.94" height="4.94" transform="translate(-3.29 15) rotate(-4.58)"/><path class="cls-1" d="M283.3,29.48l-.74.83a1.5,1.5,0,0,1-1.08.53l-3.11.19c-4.32.26-8.79.53-13.35.86h-.12a1.57,1.57,0,0,1-1.57-1.57L263,36.8a1.57,1.57,0,0,1,1.35-1.56,117.77,117.77,0,0,1,14.92-.85c3.94,0,8-.11,12.06-.5l1.06-2.44-5.73-5.84C285.51,27,284.48,28.15,283.3,29.48Z"/><path d="M281.48,30.84l-3.11.19c-4.32.26-8.79.53-13.35.86h-.12a1.57,1.57,0,0,1-1.57-1.57L263,36.8a1.57,1.57,0,0,1,1.35-1.56,117.77,117.77,0,0,1,14.92-.85Z"/><path class="cls-2" d="M200.12,69.88l-4.93.4-4.93.39,9.86-.79,4.92-.39-.39-4.93-.39-4.92-4.93.39-.39-4.93-.4-4.92-4.93.39-.39-4.92-.39-4.93-4.93.39-.4-4.92-4.92.39-.4-4.93-4.92.4-4.93.39-4.93.4.4,4.92-4.93.4-.39-4.93-4.93.4-4.93.39-4.92.39.39,4.93-4.93.4.4,4.92.39,4.93L139,50l.39,4.93.39,4.93.4,4.92-4.93.4.4,4.92.39,4.93.4,4.93,4.92-.4.4,4.93,4.92-.39,4.93-.4.39,4.93,4.93-.4,4.93-.39,4.92-.4,4.93-.39,4.93-.39,4.92-.4,4.93-.39,4.93-.4-.4-4.92-4.92.39-2.88.23,2-.16h0l5.81-.46,4.93-.4-.39-4.92,4.92-.4Zm-44.74-1.37Zm23.49,13-.52,0,.52,0Z"/><path d="M3,110.5c17.29-7.81,32.14-19.07,45.35-34.36a1.42,1.42,0,0,0,.28-1.35C46.9,69.32,45.25,64,43.51,58.3l-1.78-5.77a1.4,1.4,0,0,0-1.1-1,1.32,1.32,0,0,0-.28,0,1.39,1.39,0,0,0-1.09.56,20.47,20.47,0,0,0-2,3.38c-1,2.06-2,4-4.12,5.23-1.87-2-3.76-3.87-6.14-6.24.76-.37,1.49-.77,2.25-1.19s1.65-.9,2.52-1.31c5.91-2.88,9-6.36,10-11.3a.77.77,0,0,0,0-.15,2.59,2.59,0,0,1,.38-.42l.28-.28c1.25.92,2.46,1.84,3.73,2.82l.12.09c.94.73,1.91,1.47,2.93,2.23l-2.76,4.73a1.47,1.47,0,0,0-.19.77c.16,4.43,2.45,7.94,4.88,11.65.62.94,1.25,1.9,1.84,2.89a1.44,1.44,0,0,0,1.16.68h.09a1.41,1.41,0,0,0,1.11-.59c5.84-8.16,8.4-17.32,11.12-27,.33-1.21.67-2.43,1-3.65a1.41,1.41,0,0,0-1.29-1.8c-4.18-.2-8.06-.26-11.86-.16-16.22.41-30.18,3.7-42.67,10.07L4.62,32l41.71-3.25a1.41,1.41,0,0,0,1.3-1.44l-.37-15a1.44,1.44,0,0,0-.76-1.22L42.27,8.84,51,3,65,9.13l-3.93,5.78a1.36,1.36,0,0,0-.25.83l.26,10.16a1.41,1.41,0,0,0,1.44,1.38l17.31-.44a1.41,1.41,0,0,0,1-.48l4.89-5.55L97.61,33.12l-.83.76c-1.08,1-2,1.83-2.55,2.38L73.45,32.73l-.27,0a1.42,1.42,0,0,0-1.24.79,1.44,1.44,0,0,0,.32,1.67L82,44.1c-5.11,2-7.09,6-9,10-.38.78-.74,1.52-1.13,2.24-1.73,3.19-3.68,6.3-5.57,9.31-1.08,1.71-2.15,3.42-3.2,5.15A17.57,17.57,0,0,1,62,72.59a1.41,1.41,0,0,0,.29,1.9l1.23,1a26.76,26.76,0,0,0,3.57,2.65,106.35,106.35,0,0,0,21.16,9.17L105.91,92l-2.43,1c-1.5.61-3,1.19-4.5,1.77-2.87,1.11-5.56,2.14-8.21,3.34a7.64,7.64,0,0,0-2.46,2.24c-.27.33-.54.66-.82,1a98,98,0,0,1-32.88-17.9A1.42,1.42,0,0,0,53,83.35c-2.48,1.55-5,3.13-7.36,4.67-5.81,3.72-11.8,7.56-17.93,10.86l-3.48,1.94C17.49,104.58,10.57,108.45,3,110.5Z"/><path d="M127.62,102.17c-.35-.7-.66-1.44-1-2.15-.86-2.08-1.74-4.22-3.81-5.71,6,.21,12.18.31,18.78.31,15.25,0,30.39-.56,43.19-1.11a1.46,1.46,0,0,0,.86-.34,1.39,1.39,0,0,0,.83.26l7.4-.32a1.49,1.49,0,0,0,.79-.29c2.86-2.18,5.13-3.84,7.34-5.37,4.16,1.29,9.78,6.66,9.85,10.46-.45.58-1,1.19-1.59,1.82l-.78.84c-1.22-.29-2.51-.61-3.8-.94l-.1,0c-2.92-.74-5.94-1.5-8.92-2a115.67,115.67,0,0,0-15.15-1.42c-1.49-.06-3.09-.09-4.88-.09-2.59,0-5.24.06-7.8.13l-3.2.07-9.69.43c-.68,0-1.37,0-2.06.06a35.67,35.67,0,0,0-6.18.48l-8.94,1.08a1.28,1.28,0,0,0-.28.07Zm1.4-58a29.59,29.59,0,0,1-2.92-.9c0-.21,0-.42,0-.62a2.63,2.63,0,0,1,0-1.07c.6-1.6,1.25-3.1,1.87-4.55.79-1.85,1.61-3.76,2.28-5.71,1.93-5.28,2.21-9.66.89-13.78a.49.49,0,0,0,0-.11,2.29,2.29,0,0,1,.05-.63c0-.08,0-.18,0-.28l8.3,6.18a1.44,1.44,0,0,0,.85.28H161.5a1.41,1.41,0,0,0,1.4-1.23,42.92,42.92,0,0,0-.4-11.12,1.43,1.43,0,0,0-.76-1.08c-1.32-.68-2.63-1.3-4.13-2l8-3.68,2.69.83a52.77,52.77,0,0,1,11.21,4.43l-5,6.42a1.53,1.53,0,0,0-.28.64c-.16,1-.32,2.54-.51,4.53a1.41,1.41,0,0,0,.88,1.44l.21.09a3.67,3.67,0,0,0,1,.3H176l18.49-1.41c2.63-.18,4.6-1.62,6.5-3,.44-.33.88-.65,1.33-1l1.06-.67c.87.72,1.81,1.43,2.64,2.06,3.05,2.32,6.2,4.72,7.94,8.52a4.75,4.75,0,0,1-1.09,5.69c-4.87.68-9.3,1.37-13.58,2l-3.37.53.15-.8c.42-2.56.86-5.17,1.4-8a1.41,1.41,0,0,0-1.31-1.68c-4.6-.25-9.24-.38-13.79-.38A260.7,260.7,0,0,0,139.72,28a1.4,1.4,0,0,0-1.18,1.42C138.69,36.9,135.66,41.58,129,44.14Z"/><path d="M229.08,131.63c-.16,0-.35,0-.57,0l-.77-.05.54-.54c.46-.47.71-.72.93-.77,7.56-2.44,14.44-6.37,20.51-9.84,7-4,13.4-9.66,20.28-17.67a65.18,65.18,0,0,0,11.87-20.17c1-2.53,2.09-5,3.18-7.48.66-1.48,1.29-2.91,1.9-4.33a17.73,17.73,0,0,0,.56-1.8,1.57,1.57,0,0,0-1.45-2l-1.22,0a55.26,55.26,0,0,0-7.22.62l-.17,0-2.82.35a1.55,1.55,0,0,0-1.3,1,1.58,1.58,0,0,0,.29,1.61L276,73.29l-.1.28a2.88,2.88,0,0,1-.36.78l-.09.1-3,4c-2.57,3.46-5.24,7-8.05,10.45a60.44,60.44,0,0,1-12,11.19,92.39,92.39,0,0,1-12.37,7.21c-2.39,1.23-4.85,2.5-7.24,3.89a8.05,8.05,0,0,1-3.09.76,73.12,73.12,0,0,0,21.49-17.89c5.72-6.8,10-14.38,14.54-22.4a1.68,1.68,0,0,0,0-1.69,1.6,1.6,0,0,0-1.31-.75h-.15l-10.09,1.08a1.59,1.59,0,0,0-1.08.61c-6.74,8.78-16.36,14.21-25.65,19.46l-2.14,1.2-.42-.49q2-1.77,4-3.53c3.54-3.11,7.17-6.29,10.4-9.69,5.28-5.42,8.82-10.47,11.14-15.88a1.59,1.59,0,0,0-.09-1.41l-2.53-4.39h4.94a1.58,1.58,0,0,0,1.57-1.48c.69-12.78,1.16-24.31-.13-35.95a1.58,1.58,0,0,0-.57-1.05l-4.91-4L257.27,11l5.41,2.77L264,15.65a1.59,1.59,0,0,0,1.3.69l29.31-1.7a1.56,1.56,0,0,0,1.06-.5l5.64-6.07,8.37,6.08.44,3.29c-3.89,2.56-3.63,6.14-2.93,10.21a85.24,85.24,0,0,1,.47,16.26,16.17,16.17,0,0,1-1.39,4.89c-.29.73-.58,1.46-.83,2.2l-2,4.77c-.31.25-.7.6-1.11,1-1.14,1-2.41,2.17-3.69,3.44L295,58.54V50.28a1.59,1.59,0,0,0-.49-1.14,1.56,1.56,0,0,0-1.09-.43h-.07c-9.28.41-19.8.87-29.85,1.21a1.58,1.58,0,0,0-1.36.88l-.34.69c-.66,1.35-1.28,2.61-2,3.81l-.14,0a1.57,1.57,0,0,0-.6,2.78l2.22,1.7-2.05,2.89a1.58,1.58,0,0,0,1.28,2.49l37.63-1.93a1.53,1.53,0,0,0,.6-.16,1.71,1.71,0,0,0,.55.09l8.84-.45a1.53,1.53,0,0,0,.69-.2l5.91-3.35c4.56,1.69,6,3,8.19,7.74-.5.55-1.06,1.11-1.66,1.71s-1.22,1.23-1.91,2a1.62,1.62,0,0,0-.37.65l-4,14.11c-.52,1.76-1,3.52-1.43,5.22-.68,2.54-1.38,5.17-2.23,7.66a10.63,10.63,0,0,1-1.56,2.53,11.38,11.38,0,0,0-1.63,2.66c-2,5.1-6.17,7.51-10.61,10.06-1.55.89-3,1.73-4.43,2.72a5.3,5.3,0,0,1-2.29.63l-.91.13-1.71-2a14.24,14.24,0,0,0-1-11l7.42,1.35a1.43,1.43,0,0,0,.29,0,1.57,1.57,0,0,0,1.51-1.15s2.77-5.24,3-5.84a152.38,152.38,0,0,0,9.6-30.2,1.57,1.57,0,0,0-1.55-1.88H295.31a1.59,1.59,0,0,0-1.42.88,1.6,1.6,0,0,0,.17,1.66l2.19,2.82-8.33,17.6a61,61,0,0,1-13.42,18.84,64.27,64.27,0,0,1-9.77,7.18c-5.48,3.37-10,6-14.29,8.15a123.07,123.07,0,0,1-11.33,5c-2.09.77-4.22,1.45-6.28,2.12l-3.21,1-.14.05A.94.94,0,0,1,229.08,131.63Zm62.21-97.75c-4,.4-8.11.45-12.06.51a117.85,117.85,0,0,0-14.92.84A1.57,1.57,0,0,0,263,36.79v8.56a1.56,1.56,0,0,0,.49,1.15,1.6,1.6,0,0,0,1.08.43l29.3-1.64a1.58,1.58,0,0,0,1.47-1.35c.92-6.5.81-19.88,0-23.7A1.58,1.58,0,0,0,293.79,19h0L289,19c-8,0-16.33,0-24.4,1.53a1.58,1.58,0,0,0-1.28,1.55v8.23a1.59,1.59,0,0,0,1.58,1.58H265c4.56-.32,9-.59,13.35-.85l3.11-.19a1.58,1.58,0,0,0,1.08-.53l.74-.83c1.19-1.34,2.21-2.49,3.34-3.87l5.73,5.83Z"/><rect x="147.89" y="34.21" width="4.94" height="4.94" transform="translate(-2.45 12.11) rotate(-4.58)"/><rect x="143.35" y="39.53" width="4.94" height="4.94" transform="matrix(1, -0.08, 0.08, 1, -2.89, 11.77)"/><rect x="143.75" y="44.46" width="4.94" height="4.94" transform="translate(-3.28 11.82) rotate(-4.58)"/><rect x="144.14" y="49.38" width="4.94" height="4.94" transform="translate(-3.67 11.86) rotate(-4.58)"/><rect x="139.22" y="49.78" width="4.94" height="4.94" transform="translate(-3.72 11.47) rotate(-4.58)"/><rect x="139.61" y="54.7" width="4.94" height="4.94" transform="translate(-4.11 11.52) rotate(-4.58)"/><rect x="140" y="59.63" width="4.94" height="4.94" transform="translate(-4.5 11.57) rotate(-4.58)"/><rect x="135.47" y="64.95" width="4.94" height="4.94" transform="translate(-4.94 11.22) rotate(-4.58)"/><rect x="135.87" y="69.88" width="4.94" height="4.94" transform="matrix(1, -0.08, 0.08, 1, -5.33, 11.27)"/><rect x="136.26" y="74.81" width="4.94" height="4.94" transform="matrix(1, -0.08, 0.08, 1, -5.72, 11.31)"/><rect x="141.58" y="79.34" width="4.94" height="4.94" transform="translate(-6.07 11.75) rotate(-4.58)"/><rect x="146.51" y="78.94" width="4.94" height="4.94" transform="translate(-6.02 12.15) rotate(-4.58)"/><rect x="152.81" y="33.81" width="4.94" height="4.94" transform="translate(-2.4 12.5) rotate(-4.58)"/><rect x="157.74" y="33.42" width="4.94" height="4.94" transform="translate(-2.35 12.9) rotate(-4.58)"/><rect x="167.59" y="32.63" width="4.94" height="4.94" transform="translate(-2.26 13.68) rotate(-4.58)"/><rect x="172.52" y="32.24" width="4.94" height="4.94" transform="translate(-2.21 14.07) rotate(-4.58)"/><rect x="177.45" y="31.84" width="4.94" height="4.94" transform="translate(-2.16 14.46) rotate(-4.58)"/><rect x="182.77" y="36.38" width="4.94" height="4.94" transform="translate(-2.51 14.9) rotate(-4.58)"/><rect x="188.09" y="40.91" width="4.94" height="4.94" transform="translate(-2.85 15.34) rotate(-4.58)"/><rect x="188.48" y="45.83" width="4.94" height="4.94" transform="matrix(1, -0.08, 0.08, 1, -3.25, 15.39)"/><rect x="193.8" y="50.37" width="4.94" height="4.94" transform="translate(-3.59 15.83) rotate(-4.58)"/><rect x="194.2" y="55.29" width="4.94" height="4.94" transform="translate(-3.98 15.88) rotate(-4.58)"/><rect x="194.59" y="60.22" width="4.94" height="4.94" transform="translate(-4.37 15.92) rotate(-4.58)"/><rect x="199.52" y="59.83" width="4.94" height="4.94" transform="matrix(1, -0.08, 0.08, 1, -4.33, 16.31)"/><rect x="195.38" y="70.07" width="4.94" height="4.94" transform="translate(-5.16 16.02) rotate(-4.58)"/><rect x="190.85" y="75.39" width="4.94" height="4.94" transform="matrix(1, -0.08, 0.08, 1, -5.6, 15.67)"/><rect x="186.32" y="80.72" width="4.94" height="4.94" transform="translate(-6.04 15.33) rotate(-4.58)"/><rect x="181.39" y="81.11" width="4.94" height="4.94" transform="matrix(1, -0.08, 0.08, 1, -6.08, 14.94)"/><rect x="176.46" y="81.5" width="4.94" height="4.94" transform="translate(-6.13 14.54) rotate(-4.58)"/><rect x="171.54" y="81.9" width="4.94" height="4.94" transform="matrix(1, -0.08, 0.08, 1, -6.18, 14.15)"/><rect x="166.61" y="82.29" width="4.94" height="4.94" transform="translate(-6.22 13.76) rotate(-4.58)"/><rect x="161.68" y="82.69" width="4.94" height="4.94" transform="translate(-6.27 13.37) rotate(-4.58)"/><rect x="156.76" y="83.08" width="4.94" height="4.94" transform="translate(-6.32 12.98) rotate(-4.58)"/><rect x="151.83" y="83.48" width="4.94" height="4.94" transform="matrix(1, -0.08, 0.08, 1, -6.37, 12.58)"/><rect x="199.91" y="64.75" width="4.94" height="4.94" transform="matrix(1, -0.08, 0.08, 1, -4.72, 16.36)"/><rect x="163.06" y="37.95" width="4.94" height="4.94" transform="matrix(1, -0.08, 0.08, 1, -2.7, 13.34)"/><rect x="148.67" y="44.06" width="4.94" height="4.94" transform="translate(-3.23 12.21) rotate(-4.58)"/><rect x="153.6" y="43.67" width="4.94" height="4.94" transform="translate(-3.18 12.6) rotate(-4.58)"/><rect x="154" y="48.59" width="4.94" height="4.94" transform="translate(-3.58 12.65) rotate(-4.58)"/><rect x="158.53" y="43.27" width="4.94" height="4.94" transform="translate(-3.14 12.99) rotate(-4.58)"/><rect x="154.39" y="53.52" width="4.94" height="4.94" transform="matrix(1, -0.08, 0.08, 1, -3.97, 12.69)"/><rect x="159.32" y="53.13" width="4.94" height="4.94" transform="translate(-3.92 13.09) rotate(-4.58)"/><rect x="168.38" y="42.49" width="4.94" height="4.94" transform="translate(-3.04 13.77) rotate(-4.58)"/><rect x="163.85" y="47.81" width="4.94" height="4.94" transform="translate(-3.48 13.43) rotate(-4.58)"/><rect class="cls-1" x="158.92" y="48.2" width="4.94" height="4.94" transform="translate(-3.53 13.04) rotate(-4.58)"/><rect class="cls-1" x="178.63" y="46.62" width="4.94" height="4.94" transform="translate(-3.34 14.61) rotate(-4.58)"/><rect x="173.31" y="42.09" width="4.94" height="4.94" transform="translate(-2.99 14.17) rotate(-4.58)"/><rect x="178.23" y="41.7" width="4.94" height="4.94" transform="translate(-2.95 14.56) rotate(-4.58)"/><rect x="174.1" y="51.94" width="4.94" height="4.94" transform="translate(-3.78 14.26) rotate(-4.58)"/><rect x="179.02" y="51.55" width="4.94" height="4.94" transform="translate(-3.73 14.65) rotate(-4.58)"/><rect x="173.7" y="47.02" width="4.94" height="4.94" transform="matrix(1, -0.08, 0.08, 1, -3.39, 14.21)"/><rect x="189.67" y="60.61" width="4.94" height="4.94" transform="translate(-4.42 15.53) rotate(-4.58)"/><rect class="cls-3" x="185.13" y="65.94" width="4.94" height="4.94" transform="translate(-4.86 15.19) rotate(-4.58)"/><polyline class="cls-3" points="185.19 69.2 185.34 71.07 180.41 71.46 180.02 66.53 184.94 66.14 185.19 69.2"/><rect x="155.18" y="63.37" width="4.94" height="4.94" transform="translate(-4.75 12.79) rotate(-4.58)"/><rect x="150.25" y="63.77" width="4.94" height="4.94" transform="translate(-4.8 12.4) rotate(-4.58)"/><rect x="155.57" y="68.3" width="4.94" height="4.94" transform="translate(-5.14 12.83) rotate(-4.58)"/><rect x="160.5" y="67.91" width="4.94" height="4.94" transform="translate(-5.1 13.23) rotate(-4.58)"/><rect x="175.67" y="71.65" width="4.94" height="4.94" transform="translate(-5.35 14.45) rotate(-4.58)"/><rect class="cls-3" x="175.28" y="66.72" width="4.94" height="4.94" transform="translate(-4.95 14.4) rotate(-4.58)"/><rect x="170.75" y="72.05" width="4.94" height="4.94" transform="matrix(1, -0.08, 0.08, 1, -5.39, 14.06)"/><rect class="cls-3" x="170.35" y="67.12" width="4.94" height="4.94" transform="matrix(1, -0.08, 0.08, 1, -5, 14.01)"/><rect x="165.82" y="72.44" width="4.94" height="4.94" transform="translate(-5.44 13.67) rotate(-4.58)"/><rect class="cls-3" x="165.43" y="67.51" width="4.94" height="4.94" transform="translate(-5.05 13.62) rotate(-4.58)"/><rect x="160.89" y="72.83" width="4.94" height="4.94" transform="translate(-5.49 13.27) rotate(-4.58)"/><rect x="180.6" y="71.26" width="4.94" height="4.94" transform="translate(-5.3 14.84) rotate(-4.58)"/><rect x="185.53" y="70.86" width="4.94" height="4.94" transform="translate(-5.25 15.23) rotate(-4.58)"/><rect x="190.45" y="70.47" width="4.94" height="4.94" transform="translate(-5.2 15.62) rotate(-4.58)"/><rect x="183.16" y="41.3" width="4.94" height="4.94" transform="matrix(1, -0.08, 0.08, 1, -2.9, 14.95)"/><rect x="183.56" y="46.23" width="4.94" height="4.94" transform="translate(-3.29 15) rotate(-4.58)"/><path d="M283.3,29.5l-.74.83a1.5,1.5,0,0,1-1.08.53l-3.11.19c-4.32.26-8.79.53-13.35.86h-.12a1.57,1.57,0,0,1-1.57-1.57L263,36.81a1.56,1.56,0,0,1,1.35-1.55,117.77,117.77,0,0,1,14.92-.85c3.94,0,8-.11,12.06-.5l1.06-2.44-5.73-5.84C285.51,27,284.48,28.17,283.3,29.5Z"/><path class="cls-1" d="M281.48,30.86l-3.11.19c-4.32.26-8.79.53-13.35.86h-.12a1.57,1.57,0,0,1-1.57-1.57L263,36.81a1.56,1.56,0,0,1,1.35-1.55,117.77,117.77,0,0,1,14.92-.85Z"/></g></svg>