<svg xmlns="http://www.w3.org/2000/svg" viewBox="0 0 103.35 83.56"><defs><style>.cls-1{fill:#fff;}.cls-2{fill:#2d9313;}.cls-3{fill:#fe0000;}</style></defs><title>My Lennon buddy-pro</title><g id="Layer_2" data-name="Layer 2"><polygon points="22.52 74.19 9.31 74.17 9.31 67.57 2.7 67.56 2.73 42.33 9.34 42.34 9.36 22.52 15.97 22.52 15.98 9.31 22.59 9.31 22.6 2.71 47.82 2.73 47.81 9.34 49.02 9.34 49.02 2.73 74.25 2.75 74.25 9.36 80.86 9.37 80.85 15.98 87.46 15.98 87.44 29.2 94.05 29.21 94.04 42.42 100.65 42.43 100.63 61.05 94.02 61.05 94.02 67.65 87.4 67.65 87.4 74.26 80.79 74.25 80.78 80.86 22.52 80.8 22.52 74.19"/><path class="cls-1" d="M71.55,5.46v6.6h6.61v6.61h6.6V31.9h6.61V45.12h6.6V58.35H91.32V65h-6.6v6.61H78.09v6.61H25.22V71.49H12V64.87H5.41V45H12V25.22h6.61V12h6.61V5.41H45.12V12h6.61V5.44H71.55M31.86,51.67h0M77,.06H19.9V6.61H13.28V19.82H6.66V39.64H0V70.26H6.61v6.61H19.82V83.5H83.48V77H90.1V70.35h6.6V63.75h6.61v-24H96.74V26.51H90.15V13.29H83.55V6.67H77V.06Z"/><path class="cls-2" d="M91.32,58.34h6.61V45.13H91.33V31.91H84.74V18.69h-6.6V12.07H71.54V5.46H51.73V12H45.11V5.43H25.29V12H18.68V25.23H12.06V45H5.43V64.86H12v6.61H25.23V78.1H78.09V71.54H84.7V64.94h6.61ZM31.86,51.67ZM61.75,71.53h0Z"/><rect x="25.29" y="5.41" width="6.61" height="6.61" transform="translate(0.01 -0.03) rotate(0.06)"/><rect x="18.68" y="12.01" width="6.61" height="6.61" transform="translate(0.02 -0.02) rotate(0.06)"/><rect x="18.67" y="18.62" width="6.61" height="6.61" transform="translate(0.02 -0.02) rotate(0.06)"/><rect x="18.66" y="25.23" width="6.61" height="6.61" transform="translate(0.03 -0.02) rotate(0.06)"/><rect x="12.05" y="25.22" width="6.61" height="6.61" transform="translate(0.03 -0.02) rotate(0.06)"/><rect x="12.05" y="31.83" width="6.61" height="6.61" transform="translate(0.04 -0.02) rotate(0.06)"/><rect x="12.04" y="38.44" width="6.61" height="6.61" transform="translate(0.04 -0.02) rotate(0.06)"/><rect x="5.43" y="45.04" width="6.61" height="6.61" transform="translate(0.05 -0.01) rotate(0.06)"/><rect x="5.42" y="51.65" width="6.61" height="6.61" transform="translate(0.06 -0.01) rotate(0.06)"/><rect x="5.41" y="58.26" width="6.61" height="6.61" transform="translate(0.06 -0.01) rotate(0.06)"/><rect x="12.01" y="64.87" width="6.61" height="6.61" transform="translate(0.07 -0.02) rotate(0.06)"/><rect x="18.62" y="64.88" width="6.61" height="6.61" transform="translate(0.07 -0.02) rotate(0.06)"/><rect x="31.9" y="5.42" width="6.61" height="6.61" transform="translate(0.01 -0.04) rotate(0.06)"/><rect x="38.51" y="5.43" width="6.61" height="6.61" transform="translate(0.01 -0.04) rotate(0.06)"/><rect x="51.72" y="5.44" width="6.61" height="6.61" transform="translate(0.01 -0.06) rotate(0.06)"/><rect x="58.33" y="5.45" width="6.61" height="6.61" transform="translate(0.01 -0.06) rotate(0.06)"/><rect x="64.94" y="5.45" width="6.61" height="6.61" transform="translate(0.01 -0.07) rotate(0.06)"/><rect x="71.54" y="12.07" width="6.61" height="6.61" transform="translate(0.02 -0.08) rotate(0.06)"/><rect x="78.14" y="18.68" width="6.61" height="6.61" transform="translate(0.02 -0.08) rotate(0.06)"/><rect x="78.14" y="25.29" width="6.61" height="6.61" transform="translate(0.03 -0.08) rotate(0.06)"/><rect x="84.74" y="31.91" width="6.61" height="6.61" transform="translate(0.04 -0.09) rotate(0.06)"/><rect x="84.73" y="38.51" width="6.61" height="6.61" transform="translate(0.04 -0.09) rotate(0.06)"/><rect x="84.72" y="45.12" width="6.61" height="6.61" transform="translate(0.05 -0.09) rotate(0.06)"/><rect x="91.33" y="45.13" width="6.61" height="6.61" transform="translate(0.05 -0.1) rotate(0.06)"/><rect x="84.71" y="58.34" width="6.61" height="6.61" transform="translate(0.06 -0.09) rotate(0.06)"/><rect x="78.1" y="64.94" width="6.61" height="6.61" transform="translate(0.07 -0.08) rotate(0.06)"/><rect x="71.48" y="71.54" width="6.61" height="6.61" transform="translate(0.08 -0.08) rotate(0.06)"/><rect x="64.87" y="71.53" width="6.61" height="6.61" transform="translate(0.08 -0.07) rotate(0.06)"/><rect x="58.26" y="71.53" width="6.61" height="6.61" transform="translate(0.08 -0.06) rotate(0.06)"/><rect x="51.66" y="71.52" width="6.61" height="6.61" transform="translate(0.08 -0.06) rotate(0.06)"/><rect x="45.05" y="71.51" width="6.61" height="6.61" transform="translate(0.08 -0.05) rotate(0.06)"/><rect x="38.44" y="71.51" width="6.61" height="6.61" transform="translate(0.08 -0.04) rotate(0.06)"/><rect x="31.83" y="71.5" width="6.61" height="6.61" transform="translate(0.08 -0.04) rotate(0.06)"/><rect x="25.22" y="71.49" width="6.61" height="6.61" transform="translate(0.08 -0.03) rotate(0.06)"/><rect x="91.32" y="51.74" width="6.61" height="6.61" transform="translate(0.06 -0.1) rotate(0.06)"/><rect x="45.11" y="12.04" width="6.61" height="6.61" transform="translate(0.02 -0.05) rotate(0.06)"/><rect x="25.28" y="18.63" width="6.61" height="6.61" transform="translate(0.02 -0.03) rotate(0.06)"/><rect x="31.89" y="18.64" width="6.61" height="6.61" transform="translate(0.02 -0.04) rotate(0.06)"/><rect x="31.88" y="25.24" width="6.61" height="6.61" transform="translate(0.03 -0.04) rotate(0.06)"/><rect x="38.49" y="18.64" width="6.61" height="6.61" transform="translate(0.02 -0.04) rotate(0.06)"/><rect x="31.87" y="31.85" width="6.61" height="6.61" transform="translate(0.04 -0.04) rotate(0.06)"/><rect x="38.48" y="31.86" width="6.61" height="6.61" transform="translate(0.04 -0.04) rotate(0.06)"/><rect x="51.71" y="18.66" width="6.61" height="6.61" transform="translate(0.02 -0.06) rotate(0.06)"/><rect x="45.09" y="25.26" width="6.61" height="6.61" transform="translate(0.03 -0.05) rotate(0.06)"/><rect class="cls-1" x="38.49" y="25.25" width="6.61" height="6.61" transform="translate(0.03 -0.04) rotate(0.06)"/><rect class="cls-1" x="64.92" y="25.28" width="6.61" height="6.61" transform="translate(0.03 -0.07) rotate(0.06)"/><rect x="58.32" y="18.66" width="6.61" height="6.61" transform="translate(0.02 -0.06) rotate(0.06)"/><rect x="64.93" y="18.67" width="6.61" height="6.61" transform="translate(0.02 -0.07) rotate(0.06)"/><rect x="58.3" y="31.88" width="6.61" height="6.61" transform="translate(0.04 -0.06) rotate(0.06)"/><rect x="64.91" y="31.89" width="6.61" height="6.61" transform="translate(0.04 -0.07) rotate(0.06)"/><rect x="58.31" y="25.27" width="6.61" height="6.61" transform="translate(0.03 -0.06) rotate(0.06)"/><rect x="78.12" y="45.11" width="6.61" height="6.61" transform="translate(0.05 -0.08) rotate(0.06)"/><rect class="cls-3" x="71.5" y="51.72" width="6.61" height="6.61" transform="translate(0.06 -0.08) rotate(0.06)"/><polyline class="cls-3" points="71.5 55.81 71.5 58.32 64.89 58.31 64.9 51.71 71.5 51.71 71.5 55.81"/><rect x="31.86" y="45.07" width="6.61" height="6.61" transform="translate(0.05 -0.04) rotate(0.06)"/><rect x="25.25" y="45.06" width="6.61" height="6.61" transform="translate(0.05 -0.03) rotate(0.06)"/><rect x="31.85" y="51.68" width="6.61" height="6.61" transform="translate(0.06 -0.04) rotate(0.06)"/><rect x="38.46" y="51.68" width="6.61" height="6.61" transform="translate(0.06 -0.04) rotate(0.06)"/><rect x="58.28" y="58.31" width="6.61" height="6.61" transform="translate(0.06 -0.06) rotate(0.06)"/><rect class="cls-3" x="58.28" y="51.7" width="6.61" height="6.61" transform="translate(0.06 -0.06) rotate(0.06)"/><rect x="51.67" y="58.3" width="6.61" height="6.61" transform="translate(0.06 -0.06) rotate(0.06)"/><rect class="cls-3" x="51.68" y="51.7" width="6.61" height="6.61" transform="translate(0.06 -0.06) rotate(0.06)"/><rect x="45.06" y="58.3" width="6.61" height="6.61" transform="translate(0.06 -0.05) rotate(0.06)"/><rect class="cls-3" x="45.07" y="51.69" width="6.61" height="6.61" transform="translate(0.06 -0.05) rotate(0.06)"/><rect x="38.45" y="58.29" width="6.61" height="6.61" transform="translate(0.06 -0.04) rotate(0.06)"/><rect x="64.89" y="58.32" width="6.61" height="6.61" transform="translate(0.06 -0.07) rotate(0.06)"/><rect x="71.49" y="58.32" width="6.61" height="6.61" transform="translate(0.06 -0.08) rotate(0.06)"/><rect x="78.1" y="58.33" width="6.61" height="6.61" transform="translate(0.06 -0.08) rotate(0.06)"/><rect x="71.53" y="18.68" width="6.61" height="6.61" transform="translate(0.02 -0.08) rotate(0.06)"/><rect x="71.53" y="25.28" width="6.61" height="6.61" transform="translate(0.03 -0.08) rotate(0.06)"/></g></svg>